<svg id="svg" xmlns="http://www.w3.org/2000/svg" xmlns:xlink="http://www.w3.org/1999/xlink" width="400" height="560" viewBox="0, 0, 400,560"><g id="svgg"><path id="path0" d="M43.001 22.926 C 33.533 25.406,25.636 33.569,23.560 43.019 C 22.957 45.768,22.907 67.342,23.011 281.250 L 23.125 516.458 24.051 519.167 C 26.840 527.318,33.842 534.239,41.875 536.784 L 44.792 537.708 200.000 537.708 L 355.208 537.708 358.125 536.784 C 366.283 534.199,373.366 527.116,375.951 518.958 L 376.875 516.042 376.875 279.792 L 376.875 43.542 375.909 40.833 C 372.664 31.731,365.423 24.979,356.475 22.712 C 352.134 21.613,47.221 21.820,43.001 22.926 M356.830 28.038 C 364.346 30.695,369.444 36.151,371.556 43.797 C 372.728 48.037,372.697 512.635,371.526 516.458 C 369.131 524.273,363.440 529.964,355.625 532.359 C 351.719 533.556,48.281 533.556,44.375 532.359 C 36.560 529.964,30.869 524.273,28.474 516.458 C 27.276 512.547,27.276 47.453,28.474 43.542 C 31.242 34.510,38.591 28.157,47.500 27.094 C 48.990 26.916,118.458 26.794,201.875 26.823 L 353.542 26.875 356.830 28.038 M54.290 40.970 C 55.211 43.370,64.122 57.011,64.478 56.564 C 65.144 55.727,74.167 40.907,74.167 40.650 C 74.167 40.522,69.647 40.417,64.122 40.417 C 55.946 40.417,54.117 40.520,54.290 40.970 M75.000 40.631 C 75.000 40.950,84.196 55.961,84.740 56.532 C 85.092 56.899,86.471 54.954,90.278 48.719 L 95.348 40.417 85.174 40.417 C 79.578 40.417,75.000 40.513,75.000 40.631 M95.833 40.592 C 95.833 40.761,96.704 42.195,103.025 52.440 L 105.945 57.173 107.164 55.214 C 107.835 54.137,110.150 50.367,112.309 46.836 L 116.234 40.417 106.034 40.417 C 100.424 40.417,95.833 40.496,95.833 40.592 M116.790 40.729 C 119.173 45.036,126.858 57.046,127.073 56.799 C 127.236 56.612,129.306 53.271,131.673 49.375 C 134.040 45.479,136.247 41.870,136.578 41.354 L 137.179 40.417 126.898 40.417 C 121.244 40.417,116.695 40.557,116.790 40.729 M138.006 41.354 C 138.336 41.870,140.544 45.479,142.911 49.375 C 145.278 53.271,147.346 56.610,147.508 56.796 C 147.720 57.041,156.052 44.036,157.801 40.729 C 157.891 40.557,153.339 40.417,147.685 40.417 L 137.404 40.417 138.006 41.354 M162.275 46.836 C 164.434 50.367,166.752 54.143,167.427 55.228 L 168.655 57.199 169.284 56.204 C 171.690 52.395,178.750 40.764,178.750 40.609 C 178.750 40.503,174.160 40.417,168.549 40.417 L 158.349 40.417 162.275 46.836 M184.305 48.719 C 188.137 54.994,189.491 56.902,189.850 56.532 C 190.413 55.950,199.583 40.988,199.583 40.650 C 199.583 40.522,195.005 40.417,189.410 40.417 L 179.236 40.417 184.305 48.719 M200.417 40.650 C 200.417 40.988,209.587 55.950,210.150 56.532 C 210.509 56.902,211.863 54.994,215.695 48.719 L 220.764 40.417 210.590 40.417 C 204.995 40.417,200.417 40.522,200.417 40.650 M221.250 40.609 C 221.250 40.764,228.310 52.395,230.716 56.204 L 231.345 57.199 232.573 55.228 C 233.248 54.143,235.566 50.367,237.725 46.836 L 241.651 40.417 231.451 40.417 C 225.840 40.417,221.250 40.503,221.250 40.609 M242.207 40.729 C 244.590 45.036,252.275 57.046,252.490 56.799 C 252.652 56.612,254.722 53.271,257.089 49.375 C 259.456 45.479,261.664 41.870,261.994 41.354 L 262.596 40.417 252.315 40.417 C 246.661 40.417,242.112 40.557,242.207 40.729 M263.422 41.354 C 263.753 41.870,265.960 45.479,268.327 49.375 C 270.694 53.271,272.764 56.612,272.927 56.799 C 273.142 57.046,280.827 45.036,283.210 40.729 C 283.305 40.557,278.756 40.417,273.102 40.417 L 262.821 40.417 263.422 41.354 M287.691 46.836 C 289.850 50.367,292.165 54.137,292.836 55.214 L 294.055 57.173 296.975 52.440 C 303.296 42.195,304.167 40.761,304.167 40.592 C 304.167 40.496,299.576 40.417,293.966 40.417 L 283.766 40.417 287.691 46.836 M309.722 48.719 C 313.529 54.954,314.908 56.899,315.260 56.532 C 315.804 55.961,325.000 40.950,325.000 40.631 C 325.000 40.513,320.422 40.417,314.826 40.417 L 304.652 40.417 309.722 48.719 M325.833 40.650 C 325.833 40.907,334.856 55.727,335.522 56.564 C 335.878 57.011,344.789 43.370,345.710 40.970 C 345.883 40.520,344.054 40.417,335.878 40.417 C 330.353 40.417,325.833 40.522,325.833 40.650 M50.116 42.091 C 47.049 43.624,44.077 46.705,42.575 49.909 L 41.458 52.292 41.458 280.000 L 41.458 507.708 42.575 510.091 C 44.134 513.418,47.060 516.398,50.364 518.024 L 53.107 519.375 200.000 519.375 L 346.893 519.375 349.636 518.024 C 352.940 516.398,355.866 513.418,357.425 510.091 L 358.542 507.708 358.542 280.000 L 358.542 52.292 357.316 49.792 C 355.475 46.036,347.978 39.609,346.923 40.882 C 346.850 40.970,349.004 44.604,351.709 48.958 C 354.414 53.313,356.590 57.072,356.543 57.312 C 356.393 58.085,346.467 74.090,346.228 73.944 C 346.102 73.866,343.758 70.136,341.020 65.655 C 338.282 61.174,335.948 57.510,335.833 57.513 C 335.719 57.516,333.563 60.924,331.042 65.087 C 328.521 69.249,326.177 72.985,325.833 73.389 C 325.258 74.065,324.808 73.460,320.208 65.826 C 317.458 61.262,315.114 57.522,314.998 57.514 C 314.883 57.506,312.550 61.168,309.814 65.650 C 307.078 70.133,304.732 73.867,304.601 73.948 C 304.469 74.029,302.136 70.451,299.416 65.996 C 296.696 61.541,294.335 57.813,294.170 57.711 C 294.005 57.608,291.574 61.281,288.767 65.873 C 285.961 70.464,283.607 74.161,283.537 74.089 C 283.467 74.017,281.223 70.396,278.551 66.042 C 275.878 61.688,273.543 57.972,273.360 57.784 C 273.177 57.597,270.821 61.066,268.124 65.493 C 265.428 69.920,263.089 73.690,262.926 73.872 C 262.764 74.054,260.327 70.429,257.511 65.817 C 253.384 59.059,252.292 57.539,251.884 57.987 C 251.605 58.292,249.449 61.729,247.092 65.625 C 244.735 69.521,242.570 73.050,242.281 73.467 C 241.813 74.142,241.188 73.298,236.651 65.875 C 233.844 61.283,231.399 57.616,231.219 57.728 C 231.038 57.839,228.680 61.569,225.978 66.016 C 223.276 70.463,220.955 74.034,220.821 73.951 C 220.687 73.868,218.339 70.133,215.603 65.650 C 212.867 61.168,210.534 57.505,210.419 57.511 C 210.303 57.517,207.990 61.173,205.279 65.636 C 202.568 70.099,200.192 73.750,200.000 73.750 C 199.808 73.750,197.432 70.099,194.721 65.636 C 192.010 61.173,189.697 57.517,189.581 57.511 C 189.466 57.505,187.133 61.168,184.397 65.650 C 181.661 70.133,179.318 73.864,179.190 73.942 C 179.063 74.021,176.737 70.447,174.022 66.000 C 171.307 61.554,168.943 57.828,168.769 57.720 C 168.595 57.613,166.156 61.283,163.349 65.875 C 158.812 73.298,158.187 74.142,157.719 73.467 C 157.430 73.050,155.265 69.521,152.908 65.625 C 150.551 61.729,148.395 58.292,148.116 57.987 C 147.708 57.539,146.616 59.059,142.489 65.817 C 139.673 70.429,137.236 74.054,137.074 73.872 C 136.911 73.690,134.572 69.920,131.876 65.493 C 129.179 61.066,126.823 57.597,126.640 57.784 C 126.457 57.972,124.122 61.688,121.449 66.042 C 118.777 70.396,116.533 74.017,116.463 74.089 C 116.393 74.161,114.039 70.464,111.233 65.873 C 108.426 61.281,105.995 57.608,105.830 57.711 C 105.665 57.813,103.304 61.541,100.584 65.996 C 97.864 70.451,95.531 74.029,95.399 73.948 C 95.268 73.867,92.922 70.133,90.186 65.650 C 87.450 61.168,85.117 57.506,85.002 57.514 C 84.886 57.522,82.542 61.262,79.792 65.826 C 75.192 73.460,74.742 74.065,74.167 73.389 C 73.823 72.985,71.479 69.249,68.958 65.087 C 66.438 60.924,64.281 57.516,64.167 57.513 C 64.052 57.510,61.718 61.174,58.980 65.655 C 56.242 70.136,53.898 73.866,53.772 73.944 C 53.590 74.055,43.914 58.655,43.415 57.462 C 43.310 57.208,48.017 49.269,52.226 42.604 C 53.557 40.496,53.390 40.455,50.116 42.091 M58.958 82.879 C 61.708 87.426,64.072 91.082,64.210 91.003 C 64.348 90.924,66.692 87.198,69.418 82.724 C 72.145 78.249,74.469 74.589,74.583 74.589 C 74.698 74.590,77.032 78.257,79.770 82.738 C 82.508 87.219,84.852 90.947,84.978 91.021 C 85.105 91.095,87.458 87.434,90.208 82.884 C 92.958 78.334,95.314 74.605,95.444 74.597 C 95.574 74.590,97.983 78.346,100.798 82.944 C 103.614 87.543,105.970 91.246,106.034 91.173 C 106.098 91.101,108.260 87.573,110.839 83.333 C 113.417 79.094,115.756 75.377,116.037 75.074 C 116.449 74.630,117.537 76.143,121.666 82.898 C 124.480 87.504,126.835 91.220,126.899 91.157 C 126.962 91.093,129.246 87.411,131.973 82.974 C 134.701 78.537,137.078 74.881,137.256 74.849 C 137.434 74.818,139.828 78.448,142.575 82.916 C 145.322 87.385,147.626 91.098,147.695 91.167 C 147.765 91.237,150.109 87.533,152.905 82.936 C 155.701 78.339,158.132 74.668,158.308 74.776 C 158.484 74.885,160.859 78.636,163.585 83.111 C 167.986 90.336,168.603 91.167,169.088 90.520 C 169.388 90.119,171.714 86.370,174.257 82.188 C 176.800 78.005,178.992 74.590,179.128 74.597 C 179.264 74.605,181.625 78.334,184.375 82.884 C 187.125 87.434,189.488 91.089,189.627 91.008 C 189.765 90.926,192.109 87.198,194.835 82.724 C 197.561 78.249,199.885 74.588,200.000 74.588 C 200.115 74.588,202.439 78.249,205.165 82.724 C 207.891 87.198,210.235 90.926,210.373 91.008 C 210.512 91.089,212.875 87.434,215.625 82.884 C 218.375 78.334,220.736 74.605,220.872 74.597 C 221.008 74.590,223.200 78.005,225.743 82.188 C 228.286 86.370,230.612 90.119,230.912 90.520 C 231.397 91.167,232.014 90.336,236.415 83.111 C 239.141 78.636,241.516 74.885,241.692 74.776 C 241.868 74.668,244.299 78.339,247.095 82.936 C 249.891 87.533,252.235 91.237,252.305 91.167 C 252.374 91.098,254.678 87.385,257.425 82.916 C 260.172 78.448,262.569 74.816,262.751 74.845 C 262.933 74.875,265.287 78.507,267.981 82.917 C 270.675 87.327,272.955 91.011,273.048 91.104 C 273.141 91.196,275.520 87.504,278.334 82.898 C 282.463 76.143,283.551 74.630,283.963 75.074 C 284.244 75.377,286.583 79.094,289.161 83.333 C 291.740 87.573,293.902 91.101,293.966 91.173 C 294.030 91.246,296.386 87.543,299.202 82.944 C 302.017 78.346,304.426 74.590,304.556 74.597 C 304.686 74.605,307.042 78.334,309.792 82.884 C 312.542 87.434,314.895 91.095,315.022 91.021 C 315.148 90.947,317.492 87.219,320.230 82.738 C 322.968 78.257,325.302 74.590,325.417 74.589 C 325.531 74.589,327.855 78.249,330.582 82.724 C 333.308 87.198,335.652 90.924,335.790 91.003 C 335.928 91.082,338.292 87.426,341.042 82.879 C 343.792 78.332,346.141 74.605,346.262 74.597 C 346.384 74.590,348.788 78.341,351.605 82.933 L 356.726 91.283 355.577 93.246 C 354.946 94.325,352.601 98.178,350.367 101.807 L 346.306 108.405 345.316 106.807 C 344.771 105.928,342.462 102.163,340.184 98.440 C 337.906 94.718,335.948 91.673,335.833 91.675 C 335.719 91.676,333.399 95.331,330.679 99.797 C 327.959 104.263,325.586 107.917,325.407 107.917 C 325.228 107.917,322.860 104.265,320.145 99.801 C 317.430 95.337,315.109 91.681,314.987 91.676 C 314.865 91.671,312.672 95.089,310.114 99.271 C 307.557 103.453,305.219 107.196,304.919 107.589 C 304.439 108.219,303.839 107.419,299.792 100.741 C 297.271 96.582,294.918 92.818,294.562 92.376 C 293.953 91.618,293.630 92.042,288.785 99.977 C 284.270 107.371,283.592 108.290,283.144 107.628 C 282.864 107.214,280.701 103.688,278.338 99.792 C 275.974 95.896,273.812 92.458,273.532 92.152 C 273.121 91.702,272.081 93.142,268.113 99.652 C 265.413 104.083,263.078 107.853,262.925 108.031 C 262.772 108.208,260.341 104.581,257.523 99.971 C 253.370 93.176,252.303 91.694,251.889 92.148 C 251.608 92.456,249.264 96.177,246.679 100.417 C 244.094 104.656,241.930 108.182,241.870 108.251 C 241.811 108.321,239.466 104.617,236.659 100.022 C 233.853 95.427,231.441 91.675,231.299 91.684 C 231.158 91.694,228.792 95.433,226.042 99.993 C 221.644 107.286,220.976 108.200,220.497 107.580 C 220.198 107.192,217.860 103.453,215.302 99.271 C 212.744 95.089,210.552 91.669,210.430 91.672 C 210.308 91.675,207.983 95.331,205.262 99.797 C 202.542 104.263,200.174 107.917,200.000 107.917 C 199.826 107.917,197.458 104.263,194.738 99.797 C 192.017 95.331,189.692 91.675,189.570 91.672 C 189.448 91.669,187.256 95.089,184.698 99.271 C 182.140 103.453,179.802 107.192,179.503 107.580 C 179.024 108.200,178.356 107.286,173.958 99.993 C 171.208 95.433,168.842 91.694,168.701 91.684 C 168.559 91.675,166.147 95.427,163.341 100.022 C 160.534 104.617,158.189 108.321,158.130 108.251 C 158.070 108.182,155.906 104.656,153.321 100.417 C 150.736 96.177,148.393 92.458,148.114 92.152 C 147.705 91.702,146.661 93.147,142.697 99.652 C 139.996 104.083,137.662 107.853,137.509 108.031 C 137.355 108.208,134.925 104.581,132.107 99.971 C 127.950 93.171,126.887 91.694,126.471 92.148 C 126.190 92.456,124.026 95.896,121.662 99.792 C 119.299 103.688,117.136 107.214,116.856 107.628 C 116.408 108.290,115.730 107.371,111.215 99.977 C 106.370 92.042,106.047 91.618,105.438 92.376 C 105.082 92.818,102.729 96.582,100.208 100.741 C 96.161 107.419,95.561 108.219,95.081 107.589 C 94.781 107.196,92.443 103.453,89.886 99.271 C 87.328 95.089,85.135 91.671,85.013 91.676 C 84.891 91.681,82.570 95.337,79.855 99.801 C 77.140 104.265,74.772 107.917,74.593 107.917 C 74.414 107.917,72.041 104.263,69.321 99.797 C 66.601 95.331,64.277 91.675,64.156 91.672 C 64.036 91.669,62.079 94.714,59.808 98.438 C 57.538 102.161,55.233 105.928,54.687 106.807 L 53.694 108.405 49.633 101.807 C 47.399 98.178,45.054 94.325,44.423 93.246 L 43.274 91.283 48.395 82.933 C 51.212 78.341,53.616 74.590,53.738 74.597 C 53.859 74.605,56.208 78.332,58.958 82.879 M58.895 116.884 C 61.610 121.348,63.971 125.000,64.142 125.000 C 64.313 125.000,66.685 121.344,69.412 116.875 C 72.140 112.406,74.467 108.750,74.585 108.750 C 74.702 108.750,77.033 112.406,79.765 116.875 C 82.497 121.344,84.871 125.000,85.041 125.000 C 85.211 125.000,87.568 121.349,90.279 116.886 C 92.990 112.423,95.318 108.767,95.453 108.761 C 95.587 108.755,97.998 112.505,100.810 117.095 L 105.922 125.440 107.045 123.658 C 107.663 122.677,109.911 119.016,112.040 115.522 C 114.169 112.027,116.062 109.075,116.247 108.960 C 116.544 108.777,125.829 123.419,126.463 125.070 C 126.644 125.541,117.823 140.840,116.469 142.405 C 116.415 142.467,114.078 138.764,111.276 134.176 C 108.474 129.587,106.057 125.840,105.903 125.848 C 105.750 125.856,103.347 129.619,100.564 134.210 L 95.502 142.557 90.383 134.195 C 87.567 129.596,85.157 125.834,85.027 125.836 C 84.898 125.837,82.565 129.494,79.843 133.961 C 77.121 138.428,74.760 142.083,74.597 142.083 C 74.433 142.083,72.066 138.429,69.337 133.962 C 66.608 129.495,64.264 125.839,64.128 125.837 C 63.993 125.835,62.603 127.943,61.040 130.521 C 59.477 133.099,57.182 136.856,55.939 138.870 L 53.680 142.532 48.920 134.775 C 46.303 130.509,43.966 126.653,43.727 126.207 C 43.322 125.451,52.894 108.728,53.713 108.759 C 53.848 108.765,56.180 112.421,58.895 116.884 M142.692 117.220 C 145.336 121.530,147.500 125.247,147.500 125.481 C 147.500 125.715,145.250 129.568,142.500 134.044 C 139.750 138.519,137.500 142.346,137.500 142.546 C 137.500 142.747,139.750 146.570,142.500 151.042 C 145.250 155.513,147.500 159.362,147.500 159.594 C 147.500 159.826,145.250 163.681,142.500 168.159 C 139.750 172.638,137.500 176.466,137.500 176.667 C 137.500 176.867,139.750 180.695,142.500 185.174 C 145.250 189.653,147.488 193.555,147.472 193.846 C 147.430 194.663,137.763 210.083,137.292 210.086 C 136.856 210.089,127.083 194.420,127.083 193.719 C 127.083 193.498,129.333 189.653,132.083 185.174 C 134.833 180.695,137.083 176.866,137.083 176.663 C 137.083 176.461,134.833 172.626,132.083 168.142 C 129.333 163.658,127.083 159.805,127.083 159.580 C 127.083 159.356,129.333 155.513,132.083 151.042 C 134.833 146.570,137.083 142.743,137.083 142.537 C 137.083 142.330,134.833 138.501,132.083 134.027 C 129.333 129.552,127.083 125.698,127.083 125.462 C 127.083 125.125,132.761 115.628,136.541 109.643 C 137.336 108.383,137.065 108.049,142.692 117.220 M162.544 115.522 C 164.672 119.016,166.922 122.681,167.543 123.666 L 168.673 125.458 173.779 117.104 C 176.587 112.509,178.995 108.755,179.130 108.761 C 179.265 108.767,181.593 112.423,184.304 116.886 C 187.016 121.349,189.377 125.000,189.552 125.000 C 189.727 125.000,192.101 121.344,194.829 116.875 C 197.556 112.406,199.883 108.750,200.000 108.750 C 200.117 108.750,202.444 112.406,205.171 116.875 C 207.899 121.344,210.273 125.000,210.448 125.000 C 210.623 125.000,212.984 121.349,215.696 116.886 C 218.407 112.423,220.735 108.767,220.870 108.761 C 221.005 108.755,223.413 112.509,226.221 117.104 L 231.327 125.458 232.457 123.666 C 233.078 122.681,235.328 119.016,237.456 115.522 C 239.585 112.027,241.479 109.075,241.664 108.960 C 241.961 108.777,251.246 123.419,251.879 125.068 C 252.058 125.536,243.374 140.592,241.878 142.407 C 241.826 142.470,239.488 138.767,236.684 134.178 C 233.879 129.588,231.462 125.840,231.313 125.848 C 231.164 125.856,228.762 129.615,225.975 134.202 L 220.909 142.541 215.794 134.187 C 212.981 129.593,210.574 125.835,210.444 125.837 C 210.314 125.839,207.975 129.495,205.246 133.962 C 202.517 138.429,200.156 142.083,200.000 142.083 C 199.844 142.083,197.483 138.429,194.754 133.962 C 192.025 129.495,189.686 125.839,189.556 125.837 C 189.426 125.835,187.019 129.593,184.206 134.187 L 179.091 142.541 174.025 134.202 C 171.238 129.615,168.836 125.856,168.687 125.848 C 168.538 125.840,166.121 129.588,163.316 134.178 C 160.512 138.767,158.174 142.470,158.122 142.407 C 156.626 140.592,147.942 125.536,148.121 125.068 C 148.754 123.419,158.039 108.777,158.336 108.960 C 158.521 109.075,160.415 112.027,162.544 115.522 M268.109 117.220 C 270.753 121.530,272.917 125.244,272.917 125.474 C 272.917 125.704,270.667 129.552,267.917 134.027 C 265.167 138.501,262.917 142.330,262.917 142.537 C 262.917 142.743,265.167 146.570,267.917 151.042 C 270.667 155.513,272.917 159.356,272.917 159.580 C 272.917 159.805,270.667 163.658,267.917 168.142 C 265.167 172.626,262.917 176.461,262.917 176.663 C 262.917 176.866,265.167 180.695,267.917 185.174 C 270.667 189.653,272.917 193.498,272.917 193.719 C 272.917 194.342,263.096 210.208,262.710 210.208 C 262.290 210.208,252.566 194.583,252.528 193.846 C 252.512 193.555,254.750 189.653,257.500 185.174 C 260.250 180.695,262.500 176.867,262.500 176.667 C 262.500 176.466,260.250 172.638,257.500 168.159 C 254.750 163.681,252.500 159.826,252.500 159.594 C 252.500 159.362,254.750 155.513,257.500 151.042 C 260.250 146.570,262.500 142.747,262.500 142.546 C 262.500 142.346,260.250 138.519,257.500 134.044 C 254.750 129.568,252.500 125.710,252.500 125.470 C 252.500 125.127,258.146 115.678,261.957 109.643 C 262.753 108.383,262.482 108.049,268.109 117.220 M287.960 115.522 C 290.089 119.016,292.337 122.677,292.955 123.658 L 294.078 125.440 299.190 117.095 C 302.002 112.505,304.413 108.755,304.547 108.761 C 304.682 108.767,307.010 112.423,309.721 116.886 C 312.432 121.349,314.789 125.000,314.959 125.000 C 315.129 125.000,317.503 121.344,320.235 116.875 C 322.967 112.406,325.298 108.750,325.415 108.750 C 325.533 108.750,327.860 112.406,330.588 116.875 C 333.315 121.344,335.687 125.000,335.858 125.000 C 336.029 125.000,338.390 121.348,341.105 116.884 C 343.820 112.421,346.152 108.765,346.287 108.759 C 347.106 108.728,356.678 125.451,356.273 126.207 C 356.034 126.653,353.697 130.509,351.080 134.775 L 346.320 142.532 344.061 138.870 C 342.818 136.856,340.523 133.099,338.960 130.521 C 337.397 127.943,336.007 125.835,335.872 125.837 C 335.736 125.839,333.392 129.495,330.663 133.962 C 327.934 138.429,325.567 142.083,325.403 142.083 C 325.240 142.083,322.879 138.428,320.157 133.961 C 317.435 129.494,315.102 125.837,314.973 125.836 C 314.843 125.834,312.433 129.596,309.617 134.195 L 304.498 142.557 299.436 134.210 C 296.653 129.619,294.250 125.856,294.097 125.848 C 293.943 125.840,291.526 129.587,288.724 134.176 C 285.922 138.764,283.585 142.467,283.531 142.405 C 282.177 140.840,273.356 125.541,273.537 125.070 C 274.171 123.419,283.456 108.777,283.753 108.960 C 283.938 109.075,285.831 112.027,287.960 115.522 M58.907 151.044 C 61.629 155.512,63.979 159.167,64.130 159.167 C 64.282 159.167,66.644 155.510,69.380 151.042 C 72.117 146.573,74.460 142.917,74.589 142.917 C 74.717 142.917,77.061 146.573,79.797 151.042 C 82.533 155.510,84.895 159.167,85.044 159.167 C 85.194 159.167,87.542 155.513,90.262 151.047 C 92.983 146.581,95.326 142.925,95.469 142.922 C 95.884 142.914,105.919 159.520,105.718 159.882 C 104.103 162.787,95.683 176.249,95.483 176.247 C 95.332 176.246,92.981 172.590,90.260 168.122 C 87.538 163.655,85.193 160.000,85.049 160.000 C 84.906 160.000,82.556 163.656,79.829 168.125 C 77.101 172.594,74.743 176.250,74.587 176.250 C 74.432 176.250,72.079 172.594,69.359 168.125 C 66.639 163.656,64.294 160.000,64.148 160.000 C 64.002 160.000,61.650 163.655,58.920 168.121 C 56.191 172.588,53.838 176.245,53.691 176.246 C 53.496 176.249,45.167 162.940,43.454 159.888 C 43.255 159.533,53.290 142.915,53.701 142.919 C 53.842 142.921,56.185 146.577,58.907 151.044 M121.402 150.729 C 124.042 155.026,126.314 158.839,126.452 159.202 C 126.610 159.618,124.843 162.888,121.685 168.027 C 118.925 172.518,116.667 176.405,116.667 176.667 C 116.667 176.928,118.925 180.816,121.685 185.306 C 124.843 190.445,126.610 193.716,126.452 194.131 C 125.814 195.809,116.559 210.400,116.253 210.210 C 116.063 210.093,113.707 206.388,111.017 201.977 C 108.327 197.567,106.082 193.902,106.028 193.832 C 105.973 193.763,103.632 197.466,100.826 202.061 C 98.020 206.657,95.608 210.412,95.466 210.407 C 95.324 210.402,92.987 206.746,90.272 202.282 C 87.557 197.819,85.207 194.167,85.049 194.167 C 84.891 194.167,82.523 197.823,79.786 202.292 C 77.050 206.760,74.704 210.417,74.574 210.417 C 74.444 210.417,72.111 206.760,69.391 202.292 C 66.671 197.823,64.311 194.167,64.148 194.167 C 63.984 194.167,61.624 197.821,58.904 202.286 C 56.184 206.752,53.842 210.408,53.701 210.411 C 53.291 210.420,43.255 193.801,43.454 193.445 C 45.166 190.396,53.496 177.083,53.692 177.083 C 53.841 177.083,56.194 180.740,58.921 185.208 C 61.649 189.677,63.993 193.333,64.131 193.333 C 64.268 193.333,66.616 189.677,69.348 185.208 C 72.080 180.740,74.440 177.083,74.593 177.083 C 74.745 177.083,77.101 180.740,79.829 185.208 C 82.556 189.677,84.900 193.333,85.036 193.333 C 85.172 193.333,87.517 189.679,90.246 185.212 C 92.975 180.745,95.334 177.089,95.487 177.087 C 95.641 177.085,97.984 180.735,100.696 185.198 C 103.407 189.660,105.747 193.317,105.895 193.323 C 106.322 193.340,116.012 177.386,116.012 176.667 C 116.012 176.312,113.815 172.440,111.131 168.062 C 108.446 163.684,106.250 159.873,106.250 159.592 C 106.250 158.967,115.929 142.963,116.323 142.936 C 116.477 142.925,118.763 146.432,121.402 150.729 M163.595 151.284 L 168.649 159.615 173.751 151.266 C 176.557 146.674,178.970 142.919,179.114 142.922 C 179.258 142.925,181.601 146.581,184.321 151.047 C 187.041 155.513,189.389 159.167,189.539 159.167 C 189.689 159.167,192.050 155.510,194.786 151.042 C 197.523 146.573,199.869 142.917,200.000 142.917 C 200.131 142.917,202.477 146.573,205.214 151.042 C 207.950 155.510,210.311 159.167,210.461 159.167 C 210.611 159.167,212.959 155.513,215.679 151.047 C 218.399 146.581,220.742 142.925,220.886 142.922 C 221.030 142.919,223.443 146.674,226.249 151.266 L 231.351 159.615 236.405 151.284 C 239.184 146.702,241.585 142.945,241.739 142.935 C 242.023 142.917,251.404 157.980,251.866 159.196 C 252.021 159.604,250.225 162.927,247.099 168.014 C 244.340 172.503,242.083 176.394,242.083 176.659 C 242.083 176.925,244.342 180.816,247.102 185.306 C 250.141 190.252,252.023 193.722,251.876 194.107 C 251.408 195.325,242.019 210.417,241.739 210.398 C 241.585 210.388,239.183 206.629,236.401 202.043 L 231.344 193.707 226.242 202.062 C 223.436 206.657,221.025 210.414,220.883 210.411 C 220.741 210.408,218.399 206.752,215.679 202.286 C 212.959 197.821,210.608 194.167,210.456 194.167 C 210.303 194.167,207.939 197.823,205.203 202.292 C 202.467 206.760,200.125 210.417,200.000 210.417 C 199.875 210.417,197.533 206.760,194.797 202.292 C 192.061 197.823,189.697 194.167,189.544 194.167 C 189.392 194.167,187.041 197.821,184.321 202.286 C 181.601 206.752,179.259 210.408,179.117 210.411 C 178.975 210.414,176.564 206.657,173.758 202.062 L 168.656 193.707 163.599 202.043 C 160.817 206.629,158.415 210.388,158.261 210.398 C 157.981 210.417,148.592 195.325,148.124 194.107 C 147.977 193.722,149.859 190.252,152.898 185.306 C 155.658 180.816,157.917 176.925,157.917 176.659 C 157.917 176.394,155.660 172.503,152.901 168.014 C 149.775 162.927,147.979 159.604,148.134 159.196 C 148.596 157.980,157.977 142.917,158.261 142.935 C 158.415 142.945,160.816 146.702,163.595 151.284 M288.854 151.018 C 291.547 155.453,293.750 159.311,293.750 159.592 C 293.750 159.873,291.554 163.684,288.869 168.062 C 286.185 172.440,283.988 176.312,283.988 176.667 C 283.988 177.386,293.678 193.340,294.105 193.323 C 294.253 193.317,296.593 189.660,299.304 185.198 C 302.016 180.735,304.359 177.085,304.513 177.087 C 304.666 177.089,307.025 180.745,309.754 185.212 C 312.483 189.679,314.828 193.333,314.964 193.333 C 315.100 193.333,317.444 189.677,320.171 185.208 C 322.899 180.740,325.255 177.083,325.407 177.083 C 325.560 177.083,327.920 180.740,330.652 185.208 C 333.384 189.677,335.732 193.333,335.869 193.333 C 336.007 193.333,338.351 189.677,341.079 185.208 C 343.806 180.740,346.159 177.083,346.308 177.083 C 346.504 177.083,354.834 190.396,356.546 193.445 C 356.745 193.801,346.709 210.420,346.299 210.411 C 346.158 210.408,343.816 206.752,341.096 202.286 C 338.376 197.821,336.016 194.167,335.852 194.167 C 335.689 194.167,333.329 197.823,330.609 202.292 C 327.889 206.760,325.556 210.417,325.426 210.417 C 325.296 210.417,322.950 206.760,320.214 202.292 C 317.477 197.823,315.106 194.167,314.944 194.167 C 314.781 194.167,312.431 197.822,309.720 202.289 C 307.010 206.756,304.676 210.412,304.534 210.414 C 304.392 210.415,301.980 206.657,299.174 202.061 C 296.368 197.466,294.027 193.763,293.972 193.832 C 293.918 193.902,291.673 197.567,288.983 201.977 C 286.293 206.388,283.937 210.093,283.747 210.210 C 283.441 210.400,274.186 195.809,273.548 194.131 C 273.390 193.716,275.157 190.445,278.315 185.306 C 281.075 180.816,283.333 176.928,283.333 176.667 C 283.333 176.405,281.075 172.518,278.315 168.027 C 275.157 162.888,273.390 159.618,273.548 159.202 C 274.013 157.980,283.393 142.916,283.677 142.936 C 283.832 142.947,286.161 146.584,288.854 151.018 M309.738 151.047 C 312.458 155.513,314.806 159.167,314.956 159.167 C 315.105 159.167,317.467 155.510,320.203 151.042 C 322.939 146.573,325.283 142.917,325.411 142.917 C 325.540 142.917,327.883 146.573,330.620 151.042 C 333.356 155.510,335.718 159.167,335.870 159.167 C 336.021 159.167,338.371 155.512,341.093 151.044 C 343.815 146.577,346.158 142.921,346.299 142.919 C 346.710 142.915,356.745 159.533,356.546 159.888 C 354.833 162.940,346.504 176.249,346.309 176.246 C 346.162 176.245,343.809 172.588,341.080 168.121 C 338.350 163.655,335.998 160.000,335.852 160.000 C 335.706 160.000,333.361 163.656,330.641 168.125 C 327.921 172.594,325.568 176.250,325.413 176.250 C 325.257 176.250,322.899 172.594,320.171 168.125 C 317.444 163.656,315.094 160.000,314.951 160.000 C 314.807 160.000,312.462 163.655,309.740 168.122 C 307.019 172.590,304.668 176.246,304.517 176.247 C 304.317 176.249,295.897 162.787,294.282 159.882 C 294.081 159.520,304.116 142.914,304.531 142.922 C 304.674 142.925,307.017 146.581,309.738 151.047 M163.495 168.011 C 160.787 172.417,158.573 176.307,158.575 176.657 C 158.580 177.377,168.261 193.339,168.684 193.323 C 168.835 193.317,171.177 189.660,173.888 185.198 C 176.599 180.735,178.944 177.083,179.098 177.083 C 179.252 177.083,181.610 180.740,184.338 185.208 C 187.065 189.677,189.409 193.333,189.546 193.333 C 189.683 193.333,192.027 189.677,194.754 185.208 C 197.482 180.740,199.842 177.083,200.000 177.083 C 200.158 177.083,202.518 180.740,205.246 185.208 C 207.973 189.677,210.317 193.333,210.454 193.333 C 210.591 193.333,212.935 189.677,215.662 185.208 C 218.390 180.740,220.748 177.083,220.902 177.083 C 221.056 177.083,223.401 180.735,226.112 185.198 C 228.823 189.660,231.165 193.317,231.316 193.323 C 231.739 193.339,241.420 177.377,241.425 176.657 C 241.429 175.948,231.738 159.995,231.312 160.009 C 231.163 160.015,228.820 163.671,226.105 168.134 C 223.390 172.598,221.047 176.248,220.897 176.246 C 220.747 176.245,218.392 172.588,215.663 168.121 C 212.934 163.655,210.589 160.000,210.451 160.000 C 210.314 160.000,207.967 163.656,205.235 168.125 C 202.503 172.594,200.147 176.250,200.000 176.250 C 199.853 176.250,197.497 172.594,194.765 168.125 C 192.033 163.656,189.686 160.000,189.549 160.000 C 189.411 160.000,187.066 163.655,184.337 168.121 C 181.608 172.588,179.253 176.245,179.103 176.246 C 178.953 176.248,176.610 172.598,173.895 168.134 C 171.180 163.671,168.837 160.015,168.688 160.009 C 168.539 160.004,166.202 163.605,163.495 168.011 M59.273 219.896 C 61.830 224.078,64.024 227.498,64.149 227.496 C 64.273 227.495,66.608 223.838,69.337 219.371 C 72.066 214.905,74.433 211.250,74.597 211.250 C 74.760 211.250,77.121 214.905,79.843 219.372 C 82.565 223.840,84.898 227.496,85.027 227.497 C 85.157 227.499,87.567 223.737,90.383 219.138 L 95.502 210.776 100.564 219.123 C 103.347 223.714,105.747 227.477,105.896 227.485 C 106.046 227.493,108.468 223.736,111.279 219.136 C 114.687 213.559,116.498 210.955,116.713 211.323 C 120.027 216.986,126.554 227.211,126.846 227.196 C 127.060 227.185,129.466 223.546,132.193 219.109 C 134.921 214.672,137.198 210.996,137.255 210.940 C 137.311 210.884,139.601 214.516,142.344 219.012 C 145.087 223.508,147.510 227.192,147.728 227.199 C 148.027 227.209,154.589 216.936,157.878 211.309 C 158.104 210.922,159.822 213.394,163.306 219.121 C 166.109 223.730,168.527 227.494,168.680 227.486 C 168.833 227.478,171.208 223.739,173.958 219.177 C 178.359 211.876,179.024 210.967,179.504 211.587 C 179.805 211.975,182.131 215.714,184.674 219.896 C 187.217 224.078,189.408 227.499,189.544 227.497 C 189.680 227.496,192.019 223.840,194.740 219.372 C 197.462 214.905,199.829 211.250,200.000 211.250 C 200.171 211.250,202.538 214.905,205.260 219.372 C 207.981 223.840,210.310 227.496,210.435 227.497 C 210.559 227.499,212.753 224.078,215.310 219.896 C 217.867 215.714,220.203 211.975,220.501 211.587 C 220.976 210.968,221.651 211.894,226.042 219.177 C 228.792 223.739,231.167 227.478,231.320 227.486 C 231.473 227.494,233.891 223.730,236.694 219.121 C 240.178 213.394,241.896 210.922,242.122 211.309 C 245.435 216.976,252.014 227.279,252.295 227.239 C 252.501 227.210,254.913 223.508,257.656 219.012 C 260.399 214.516,262.689 210.884,262.745 210.940 C 262.802 210.996,265.066 214.651,267.778 219.063 C 270.490 223.474,272.885 227.130,273.102 227.187 C 273.398 227.266,279.714 217.428,283.287 211.323 C 283.502 210.955,285.313 213.559,288.721 219.136 C 291.532 223.736,293.954 227.493,294.104 227.485 C 294.253 227.477,296.653 223.714,299.436 219.123 L 304.498 210.776 309.617 219.138 C 312.433 223.737,314.843 227.499,314.973 227.497 C 315.102 227.496,317.435 223.840,320.157 219.372 C 322.879 214.905,325.240 211.250,325.403 211.250 C 325.567 211.250,327.934 214.905,330.663 219.371 C 333.392 223.838,335.721 227.495,335.838 227.496 C 335.956 227.498,337.349 225.391,338.934 222.813 C 340.520 220.234,342.830 216.477,344.069 214.463 L 346.320 210.802 351.080 218.559 C 353.697 222.825,356.034 226.680,356.272 227.125 C 356.674 227.876,347.088 244.609,346.277 244.573 C 346.148 244.567,343.823 240.910,341.112 236.448 C 338.401 231.985,336.040 228.333,335.866 228.333 C 335.692 228.333,333.316 231.988,330.587 236.455 C 327.858 240.922,325.530 244.578,325.415 244.580 C 325.299 244.582,322.966 240.916,320.230 236.433 C 317.494 231.951,315.152 228.224,315.024 228.151 C 314.896 228.079,312.542 231.740,309.792 236.287 C 307.042 240.835,304.681 244.562,304.547 244.569 C 304.412 244.577,302.002 240.821,299.192 236.223 C 296.381 231.625,294.031 227.922,293.970 227.994 C 293.909 228.066,291.748 231.594,289.168 235.833 C 286.588 240.073,284.245 243.791,283.960 244.097 C 283.540 244.548,282.480 243.074,278.315 236.255 L 273.188 227.857 271.490 230.581 C 270.556 232.079,268.223 235.861,266.307 238.986 C 263.480 243.593,262.726 244.561,262.314 244.104 C 262.034 243.795,259.869 240.354,257.503 236.458 C 255.137 232.563,252.976 229.043,252.701 228.638 C 252.267 227.997,251.541 228.983,247.107 236.245 C 244.305 240.834,241.858 244.493,241.670 244.377 C 241.481 244.260,239.585 241.306,237.456 237.812 C 235.328 234.317,233.078 230.652,232.457 229.667 L 231.327 227.875 226.221 236.229 C 223.413 240.824,221.005 244.579,220.870 244.573 C 220.735 244.567,218.407 240.910,215.696 236.448 C 212.984 231.985,210.623 228.333,210.448 228.333 C 210.273 228.333,207.899 231.990,205.171 236.458 C 202.444 240.927,200.117 244.583,200.000 244.583 C 199.883 244.583,197.556 240.927,194.829 236.458 C 192.101 231.990,189.727 228.333,189.552 228.333 C 189.377 228.333,187.016 231.985,184.304 236.448 C 181.593 240.910,179.265 244.567,179.130 244.573 C 178.995 244.579,176.587 240.824,173.779 236.229 L 168.673 227.875 167.543 229.667 C 166.922 230.652,164.672 234.317,162.544 237.812 C 160.415 241.306,158.519 244.260,158.330 244.377 C 158.142 244.493,155.695 240.834,152.893 236.245 C 148.433 228.941,147.734 227.993,147.287 228.638 C 147.006 229.043,144.848 232.563,142.491 236.458 C 140.134 240.354,137.974 243.795,137.692 244.104 C 137.274 244.562,136.531 243.611,133.693 238.986 C 131.777 235.861,129.444 232.079,128.510 230.581 L 126.812 227.857 121.685 236.255 C 117.520 243.074,116.460 244.548,116.040 244.097 C 115.755 243.791,113.412 240.073,110.832 235.833 C 108.252 231.594,106.091 228.066,106.030 227.994 C 105.969 227.922,103.619 231.625,100.808 236.223 C 97.998 240.821,95.588 244.577,95.453 244.569 C 95.319 244.562,92.958 240.835,90.208 236.287 C 87.458 231.740,85.104 228.079,84.976 228.151 C 84.848 228.224,82.506 231.951,79.770 236.433 C 77.034 240.916,74.701 244.582,74.585 244.580 C 74.470 244.578,72.142 240.922,69.413 236.455 C 66.684 231.988,64.308 228.333,64.134 228.333 C 63.960 228.333,61.599 231.985,58.888 236.448 C 56.177 240.910,53.848 244.567,53.713 244.573 C 53.578 244.579,51.167 240.819,48.355 236.218 L 43.242 227.853 46.481 222.572 C 48.263 219.668,50.580 215.846,51.631 214.079 C 53.331 211.222,53.601 210.946,54.083 211.579 C 54.380 211.971,56.716 215.714,59.273 219.896 M58.964 253.507 C 61.707 257.995,64.047 261.664,64.164 261.661 C 64.280 261.658,66.601 258.002,69.321 253.536 C 72.041 249.071,74.414 245.417,74.593 245.417 C 74.772 245.417,77.140 249.069,79.855 253.532 C 82.570 257.996,84.891 261.652,85.013 261.657 C 85.135 261.662,87.328 258.245,89.886 254.063 C 92.443 249.880,94.781 246.137,95.081 245.745 C 95.561 245.114,96.161 245.915,100.208 252.592 C 102.729 256.751,105.082 260.515,105.438 260.957 C 106.047 261.715,106.370 261.291,111.215 253.357 C 115.730 245.962,116.408 245.043,116.856 245.706 C 117.136 246.120,119.299 249.646,121.662 253.542 C 124.026 257.438,126.188 260.876,126.468 261.182 C 126.879 261.632,127.919 260.191,131.887 253.682 C 134.587 249.251,136.922 245.480,137.074 245.303 C 137.227 245.126,139.661 248.750,142.483 253.356 C 146.611 260.094,147.712 261.623,148.119 261.178 C 148.396 260.874,150.557 257.438,152.921 253.542 C 155.284 249.646,157.446 246.121,157.726 245.708 C 158.172 245.048,158.857 245.976,163.374 253.349 C 168.204 261.234,168.554 261.694,169.153 260.948 C 169.504 260.511,171.854 256.763,174.375 252.618 C 176.896 248.473,179.056 245.142,179.175 245.215 C 179.295 245.288,181.637 249.020,184.381 253.507 C 187.124 257.995,189.464 261.662,189.580 261.657 C 189.697 261.652,192.013 257.996,194.728 253.532 C 197.443 249.069,199.815 245.417,200.000 245.417 C 200.185 245.417,202.557 249.069,205.272 253.532 C 207.987 257.996,210.303 261.652,210.420 261.657 C 210.536 261.662,212.876 257.995,215.619 253.507 C 218.363 249.020,220.705 245.288,220.825 245.215 C 220.944 245.142,223.104 248.473,225.625 252.618 C 228.146 256.763,230.496 260.511,230.847 260.948 C 231.446 261.694,231.796 261.234,236.626 253.349 C 241.143 245.976,241.828 245.048,242.274 245.708 C 242.554 246.121,244.716 249.646,247.079 253.542 C 249.443 257.438,251.607 260.877,251.888 261.185 C 252.303 261.639,253.367 260.163,257.523 253.363 C 260.341 248.752,262.772 245.125,262.925 245.303 C 263.078 245.480,265.413 249.251,268.113 253.682 C 272.081 260.191,273.121 261.632,273.532 261.182 C 273.812 260.876,275.974 257.438,278.338 253.542 C 280.701 249.646,282.864 246.120,283.144 245.706 C 283.592 245.043,284.270 245.962,288.785 253.357 C 293.630 261.291,293.953 261.715,294.562 260.957 C 294.918 260.515,297.271 256.751,299.792 252.592 C 303.839 245.915,304.439 245.114,304.919 245.745 C 305.219 246.137,307.557 249.880,310.114 254.063 C 312.672 258.245,314.865 261.662,314.987 261.657 C 315.109 261.652,317.430 257.996,320.145 253.532 C 322.860 249.069,325.228 245.417,325.407 245.417 C 325.586 245.417,327.959 249.071,330.679 253.536 C 333.399 258.002,335.719 261.657,335.833 261.659 C 335.948 261.660,337.906 258.616,340.184 254.893 C 342.462 251.171,344.771 247.405,345.316 246.526 L 346.307 244.926 347.445 246.734 C 348.070 247.728,350.420 251.569,352.666 255.269 L 356.749 261.997 351.610 270.374 C 348.784 274.981,346.375 278.744,346.257 278.736 C 346.138 278.728,343.792 274.999,341.042 270.450 C 338.292 265.900,335.926 262.245,335.785 262.328 C 335.645 262.412,333.301 266.138,330.577 270.609 C 327.853 275.081,325.531 278.741,325.417 278.742 C 325.302 278.744,322.978 275.084,320.252 270.609 C 317.526 266.135,315.182 262.407,315.043 262.325 C 314.905 262.244,312.542 265.898,309.792 270.446 C 307.042 274.994,304.690 278.723,304.565 278.732 C 304.441 278.742,302.247 275.328,299.690 271.146 C 297.133 266.964,294.797 263.215,294.499 262.815 C 294.020 262.172,293.388 263.024,288.980 270.238 C 286.242 274.719,283.873 278.466,283.716 278.563 C 283.559 278.660,281.132 274.980,278.324 270.385 C 275.516 265.790,273.089 262.183,272.931 262.370 C 272.772 262.556,270.424 266.344,267.713 270.787 C 263.185 278.207,262.735 278.802,262.202 278.079 C 261.883 277.646,259.634 274.010,257.205 270.000 C 254.775 265.990,252.655 262.556,252.492 262.370 C 252.330 262.183,249.900 265.790,247.092 270.385 C 244.284 274.980,241.848 278.654,241.679 278.549 C 241.510 278.445,239.141 274.698,236.415 270.222 C 232.024 263.014,231.397 262.168,230.917 262.813 C 230.620 263.214,228.284 266.964,225.727 271.146 C 223.170 275.328,220.976 278.744,220.851 278.736 C 220.727 278.728,218.375 274.999,215.625 270.450 C 212.875 265.900,210.512 262.244,210.373 262.326 C 210.235 262.407,207.891 266.135,205.165 270.609 C 202.439 275.084,200.115 278.745,200.000 278.745 C 199.885 278.745,197.561 275.084,194.835 270.609 C 192.109 266.135,189.765 262.407,189.627 262.326 C 189.488 262.244,187.125 265.900,184.375 270.450 C 181.625 274.999,179.273 278.728,179.149 278.736 C 179.024 278.744,176.830 275.328,174.273 271.146 C 171.716 266.964,169.380 263.214,169.083 262.813 C 168.603 262.168,167.976 263.014,163.585 270.222 C 160.859 274.698,158.490 278.445,158.321 278.549 C 158.152 278.654,155.716 274.980,152.908 270.385 C 150.100 265.790,147.670 262.183,147.508 262.370 C 147.345 262.556,145.225 265.990,142.795 270.000 C 140.366 274.010,138.117 277.646,137.798 278.079 C 137.265 278.802,136.815 278.207,132.287 270.787 C 129.576 266.344,127.226 262.554,127.065 262.365 C 126.904 262.177,124.483 265.787,121.684 270.389 C 118.885 274.990,116.461 278.672,116.296 278.570 C 116.132 278.469,113.758 274.719,111.020 270.238 C 106.612 263.024,105.980 262.172,105.501 262.815 C 105.203 263.215,102.867 266.964,100.310 271.146 C 97.753 275.328,95.559 278.742,95.435 278.732 C 95.310 278.723,92.958 274.994,90.208 270.446 C 87.458 265.898,85.095 262.244,84.957 262.325 C 84.818 262.407,82.474 266.135,79.748 270.609 C 77.022 275.084,74.698 278.744,74.583 278.742 C 74.469 278.741,72.147 275.081,69.423 270.609 C 66.699 266.138,64.355 262.412,64.215 262.328 C 64.074 262.245,61.708 265.900,58.958 270.450 C 56.208 274.999,53.862 278.728,53.743 278.736 C 53.625 278.744,51.216 274.980,48.389 270.372 L 43.249 261.995 47.107 255.685 C 49.229 252.214,51.545 248.409,52.254 247.227 C 53.837 244.586,53.073 243.871,58.964 253.507 M58.980 287.678 C 61.718 292.160,64.052 295.824,64.167 295.821 C 64.281 295.818,66.625 292.077,69.375 287.507 C 72.125 282.938,74.469 279.200,74.583 279.201 C 74.698 279.201,77.042 282.938,79.792 287.504 C 82.542 292.070,84.886 295.812,85.002 295.819 C 85.117 295.827,87.450 292.166,90.186 287.683 C 92.922 283.201,95.268 279.467,95.399 279.386 C 95.531 279.304,97.864 282.883,100.584 287.338 C 103.304 291.792,105.665 295.521,105.830 295.623 C 105.995 295.725,108.427 292.051,111.234 287.458 C 115.772 280.035,116.397 279.192,116.864 279.866 C 117.154 280.284,119.397 283.906,121.850 287.917 C 124.303 291.927,126.459 295.362,126.641 295.549 C 126.824 295.736,129.179 292.268,131.876 287.841 C 134.572 283.414,136.912 279.642,137.076 279.459 C 137.239 279.277,139.677 282.898,142.494 287.506 C 145.310 292.115,147.763 295.733,147.945 295.547 C 148.127 295.361,150.462 291.646,153.134 287.292 C 155.806 282.938,158.050 279.316,158.121 279.243 C 158.192 279.171,160.548 282.867,163.358 287.456 C 166.168 292.045,168.599 295.718,168.760 295.619 C 168.922 295.519,171.280 291.792,174.000 287.338 C 176.720 282.883,179.052 279.304,179.182 279.384 C 179.312 279.465,181.659 283.197,184.397 287.678 C 187.135 292.160,189.469 295.822,189.583 295.816 C 189.698 295.810,192.042 292.070,194.792 287.504 C 197.542 282.938,199.885 279.202,200.000 279.202 C 200.115 279.202,202.458 282.938,205.208 287.504 C 207.958 292.070,210.302 295.810,210.417 295.816 C 210.531 295.822,212.865 292.160,215.603 287.678 C 218.341 283.197,220.688 279.465,220.818 279.384 C 220.948 279.304,223.280 282.883,226.000 287.338 C 228.720 291.792,231.078 295.519,231.240 295.619 C 231.401 295.718,233.832 292.045,236.642 287.456 C 239.452 282.867,241.808 279.171,241.879 279.243 C 241.950 279.316,244.194 282.938,246.866 287.292 C 249.538 291.646,251.873 295.361,252.055 295.547 C 252.237 295.733,254.690 292.115,257.506 287.506 C 260.323 282.898,262.761 279.277,262.924 279.459 C 263.088 279.642,265.428 283.414,268.124 287.841 C 270.821 292.268,273.176 295.736,273.359 295.549 C 273.541 295.362,275.697 291.927,278.150 287.917 C 280.603 283.906,282.846 280.284,283.136 279.866 C 283.603 279.192,284.228 280.035,288.766 287.458 C 291.573 292.051,294.003 295.726,294.166 295.626 C 294.329 295.525,296.687 291.795,299.406 287.337 C 302.125 282.879,304.460 279.299,304.595 279.382 C 304.729 279.465,307.078 283.201,309.814 287.683 C 312.550 292.166,314.883 295.827,314.998 295.819 C 315.114 295.812,317.458 292.070,320.208 287.504 C 322.958 282.938,325.302 279.201,325.417 279.201 C 325.531 279.200,327.875 282.938,330.625 287.507 C 333.375 292.077,335.719 295.818,335.833 295.821 C 335.948 295.824,338.282 292.160,341.020 287.678 C 343.758 283.197,346.107 279.463,346.240 279.381 C 346.530 279.202,356.458 295.428,356.458 296.082 C 356.458 297.715,346.428 312.907,345.833 312.174 C 345.490 311.750,343.146 307.997,340.625 303.833 C 336.388 296.833,335.994 296.318,335.417 297.012 C 335.073 297.425,332.729 301.168,330.208 305.330 C 327.688 309.492,325.531 312.898,325.417 312.898 C 325.302 312.898,322.987 309.246,320.272 304.782 C 317.557 300.318,315.213 296.590,315.063 296.499 C 314.914 296.407,312.570 299.970,309.855 304.417 C 307.140 308.863,304.787 312.582,304.627 312.681 C 304.466 312.781,302.098 309.202,299.364 304.730 C 296.630 300.257,294.286 296.532,294.155 296.451 C 294.025 296.371,291.681 299.964,288.947 304.437 C 286.213 308.909,283.858 312.641,283.715 312.730 C 283.571 312.819,281.152 309.134,278.339 304.542 C 275.526 299.950,273.091 296.346,272.927 296.534 C 272.764 296.721,270.425 300.484,267.731 304.896 C 265.037 309.307,262.776 312.917,262.708 312.917 C 262.640 312.917,260.380 309.307,257.686 304.896 C 254.991 300.484,252.653 296.721,252.490 296.534 C 252.326 296.346,249.891 299.950,247.078 304.542 C 244.265 309.134,241.839 312.815,241.687 312.721 C 241.535 312.627,239.180 308.895,236.453 304.428 C 233.727 299.961,231.390 296.372,231.260 296.452 C 231.130 296.532,228.778 300.276,226.033 304.772 C 221.393 312.370,220.998 312.891,220.417 312.175 C 220.073 311.751,217.729 308.013,215.208 303.868 C 212.688 299.723,210.503 296.407,210.353 296.499 C 210.204 296.590,207.860 300.318,205.145 304.782 C 202.430 309.246,200.115 312.898,200.000 312.898 C 199.885 312.898,197.570 309.246,194.855 304.782 C 192.140 300.318,189.796 296.590,189.647 296.499 C 189.497 296.407,187.313 299.723,184.792 303.868 C 182.271 308.013,179.927 311.751,179.583 312.175 C 179.002 312.891,178.607 312.370,173.967 304.772 C 171.222 300.276,168.869 296.532,168.739 296.451 C 168.608 296.371,166.265 299.964,163.530 304.437 C 160.796 308.909,158.442 312.641,158.298 312.730 C 158.155 312.819,155.735 309.134,152.922 304.542 C 150.109 299.950,147.674 296.346,147.510 296.534 C 147.347 296.721,145.009 300.484,142.314 304.896 C 139.620 309.307,137.360 312.917,137.292 312.917 C 137.224 312.917,134.963 309.307,132.269 304.896 C 129.575 300.484,127.236 296.721,127.073 296.534 C 126.909 296.346,124.474 299.950,121.661 304.542 C 118.848 309.134,116.429 312.819,116.285 312.730 C 116.142 312.641,113.787 308.909,111.053 304.437 C 108.319 299.964,105.975 296.371,105.845 296.451 C 105.714 296.532,103.370 300.257,100.636 304.730 C 97.902 309.202,95.534 312.781,95.373 312.681 C 95.213 312.582,92.860 308.863,90.145 304.417 C 87.430 299.970,85.086 296.407,84.937 296.499 C 84.787 296.590,82.443 300.318,79.728 304.782 C 77.013 309.246,74.698 312.898,74.583 312.898 C 74.469 312.898,72.313 309.492,69.792 305.330 C 67.271 301.168,64.927 297.425,64.583 297.012 C 64.006 296.318,63.612 296.833,59.375 303.833 C 56.854 307.997,54.510 311.750,54.167 312.174 C 53.572 312.907,43.542 297.715,43.542 296.082 C 43.542 295.428,53.470 279.202,53.760 279.381 C 53.893 279.463,56.242 283.197,58.980 287.678 M59.034 321.879 C 61.742 326.342,64.052 329.989,64.167 329.983 C 64.281 329.977,66.625 326.235,69.375 321.667 C 72.125 317.099,74.469 313.359,74.583 313.356 C 74.698 313.354,77.042 317.090,79.792 321.659 C 82.542 326.229,84.885 329.974,85.000 329.981 C 85.115 329.989,87.439 326.334,90.165 321.859 C 92.891 317.385,95.243 313.649,95.392 313.557 C 95.541 313.465,97.894 317.044,100.620 321.511 C 103.347 325.979,105.696 329.707,105.840 329.796 C 105.985 329.885,108.190 326.546,110.740 322.375 C 113.290 318.204,115.628 314.449,115.935 314.031 C 116.439 313.344,116.991 314.085,121.606 321.635 C 124.418 326.236,126.778 330.000,126.850 330.000 C 126.922 330.000,129.272 326.250,132.073 321.667 C 134.874 317.083,137.224 313.333,137.295 313.333 C 137.366 313.333,139.622 316.943,142.310 321.354 C 144.997 325.766,147.336 329.532,147.509 329.724 C 147.681 329.915,150.135 326.295,152.961 321.678 C 157.586 314.125,158.156 313.360,158.657 314.038 C 158.963 314.453,161.300 318.203,163.850 322.373 C 166.401 326.543,168.603 329.883,168.744 329.795 C 168.886 329.708,171.237 325.983,173.970 321.518 C 176.702 317.053,179.058 313.474,179.204 313.565 C 179.351 313.655,181.699 317.388,184.423 321.859 C 187.147 326.331,189.469 329.984,189.583 329.977 C 189.698 329.970,192.042 326.229,194.792 321.663 C 197.542 317.097,199.885 313.361,200.000 313.361 C 200.115 313.361,202.458 317.097,205.208 321.663 C 207.958 326.229,210.302 329.970,210.417 329.977 C 210.531 329.984,212.853 326.331,215.577 321.859 C 218.301 317.388,220.649 313.655,220.796 313.565 C 220.942 313.474,223.298 317.053,226.030 321.518 C 228.763 325.983,231.114 329.708,231.256 329.795 C 231.397 329.883,233.599 326.543,236.150 322.373 C 238.700 318.203,241.037 314.453,241.343 314.038 C 241.844 313.360,242.414 314.125,247.039 321.678 C 249.865 326.295,252.319 329.915,252.491 329.724 C 252.664 329.532,255.003 325.766,257.690 321.354 C 260.378 316.943,262.634 313.333,262.705 313.333 C 262.776 313.333,265.126 317.083,267.927 321.667 C 270.728 326.250,273.078 330.000,273.150 330.000 C 273.222 330.000,275.582 326.236,278.394 321.635 C 283.009 314.085,283.561 313.344,284.065 314.031 C 284.372 314.449,286.710 318.204,289.260 322.375 C 291.810 326.546,294.015 329.885,294.160 329.796 C 294.304 329.707,296.653 325.979,299.380 321.511 C 302.106 317.044,304.459 313.465,304.608 313.557 C 304.757 313.649,307.109 317.385,309.835 321.859 C 312.561 326.334,314.885 329.989,315.000 329.981 C 315.115 329.974,317.458 326.229,320.208 321.659 C 322.958 317.090,325.302 313.354,325.417 313.356 C 325.531 313.359,327.875 317.097,330.625 321.663 C 333.375 326.229,335.719 329.970,335.833 329.977 C 335.948 329.984,338.270 326.331,340.994 321.859 C 343.717 317.388,346.066 313.655,346.212 313.565 C 346.526 313.371,356.458 329.483,356.458 330.186 C 356.458 330.893,346.529 347.048,346.214 346.853 C 346.067 346.762,343.717 343.029,340.994 338.557 C 338.270 334.086,335.948 330.431,335.833 330.436 C 335.719 330.441,333.375 334.182,330.625 338.750 C 327.875 343.318,325.531 347.055,325.417 347.055 C 325.302 347.055,322.958 343.320,320.208 338.754 C 317.458 334.188,315.115 330.445,315.000 330.437 C 314.885 330.429,312.561 334.083,309.835 338.557 C 307.109 343.032,304.760 346.766,304.616 346.855 C 304.472 346.944,302.119 343.363,299.386 338.899 C 296.654 334.434,294.301 330.708,294.158 330.619 C 294.014 330.531,291.810 333.871,289.260 338.042 C 286.710 342.212,284.375 345.964,284.070 346.379 C 283.573 347.056,282.998 346.285,278.400 338.774 C 275.586 334.178,273.224 330.417,273.151 330.417 C 273.079 330.417,270.728 334.167,267.927 338.750 C 265.126 343.333,262.778 347.083,262.708 347.083 C 262.639 347.083,260.291 343.333,257.490 338.750 C 254.689 334.167,252.338 330.417,252.265 330.417 C 252.193 330.417,249.831 334.178,247.017 338.774 C 242.419 346.285,241.844 347.056,241.346 346.379 C 241.042 345.964,238.706 342.212,236.156 338.042 C 233.606 333.871,231.403 330.531,231.259 330.619 C 231.116 330.708,228.763 334.434,226.030 338.899 C 223.298 343.363,220.944 346.944,220.800 346.855 C 220.656 346.766,218.308 343.032,215.582 338.557 C 212.855 334.083,210.531 330.429,210.417 330.437 C 210.302 330.445,207.958 334.188,205.208 338.754 C 202.458 343.320,200.115 347.055,200.000 347.055 C 199.885 347.055,197.542 343.318,194.792 338.750 C 192.042 334.182,189.698 330.440,189.583 330.433 C 189.469 330.427,187.145 334.083,184.418 338.557 C 181.692 343.032,179.344 346.766,179.200 346.855 C 179.056 346.944,176.702 343.363,173.970 338.899 C 171.237 334.434,168.884 330.708,168.741 330.619 C 168.597 330.531,166.394 333.871,163.844 338.042 C 161.294 342.212,158.958 345.964,158.654 346.379 C 158.156 347.056,157.581 346.285,152.983 338.774 C 150.169 334.178,147.807 330.417,147.735 330.417 C 147.662 330.417,145.311 334.167,142.510 338.750 C 139.709 343.333,137.361 347.083,137.292 347.083 C 137.222 347.083,134.874 343.333,132.073 338.750 C 129.272 334.167,126.921 330.417,126.849 330.417 C 126.776 330.417,124.414 334.178,121.600 338.774 C 117.002 346.285,116.427 347.056,115.930 346.379 C 115.625 345.964,113.290 342.212,110.740 338.042 C 108.190 333.871,105.986 330.531,105.842 330.619 C 105.699 330.708,103.346 334.434,100.614 338.899 C 97.881 343.363,95.528 346.944,95.384 346.855 C 95.240 346.766,92.891 343.032,90.165 338.557 C 87.439 334.083,85.115 330.429,85.000 330.437 C 84.885 330.445,82.542 334.188,79.792 338.754 C 77.042 343.320,74.698 347.055,74.583 347.055 C 74.469 347.055,72.125 343.318,69.375 338.750 C 66.625 334.182,64.281 330.441,64.167 330.436 C 64.052 330.431,61.730 334.086,59.006 338.557 C 56.283 343.029,53.933 346.762,53.786 346.853 C 53.471 347.048,43.542 330.893,43.542 330.186 C 43.542 329.443,53.483 313.377,53.815 313.582 C 53.977 313.682,56.326 317.416,59.034 321.879 M58.958 355.809 C 61.708 360.361,64.081 364.011,64.230 363.919 C 64.379 363.827,66.723 360.099,69.438 355.635 C 72.154 351.171,74.469 347.516,74.583 347.512 C 74.698 347.509,77.008 351.158,79.716 355.621 C 82.424 360.084,84.768 363.814,84.924 363.910 C 85.081 364.006,87.271 360.693,89.792 356.549 C 92.313 352.404,94.656 348.663,95.000 348.235 C 95.583 347.510,95.944 347.978,100.289 355.083 C 102.854 359.277,105.198 363.039,105.497 363.443 C 105.981 364.097,106.592 363.276,111.018 356.022 C 113.755 351.537,116.123 347.787,116.280 347.690 C 116.437 347.593,118.862 351.274,121.669 355.871 C 124.476 360.467,126.907 364.073,127.071 363.885 C 127.236 363.696,129.575 359.932,132.269 355.521 C 134.963 351.109,137.228 347.500,137.303 347.500 C 137.377 347.500,139.637 351.109,142.325 355.521 C 145.014 359.932,147.347 363.695,147.510 363.883 C 147.674 364.071,150.109 360.467,152.922 355.875 C 155.735 351.283,158.161 347.602,158.313 347.696 C 158.465 347.790,160.820 351.521,163.547 355.989 C 166.273 360.456,168.610 364.045,168.740 363.965 C 168.870 363.884,171.222 360.141,173.967 355.645 C 178.607 348.047,179.002 347.525,179.583 348.242 C 179.927 348.666,182.271 352.404,184.792 356.549 C 187.313 360.693,189.497 364.009,189.647 363.918 C 189.796 363.826,192.140 360.099,194.855 355.635 C 197.570 351.171,199.885 347.519,200.000 347.519 C 200.115 347.519,202.430 351.171,205.145 355.635 C 207.860 360.099,210.204 363.826,210.353 363.918 C 210.503 364.009,212.688 360.693,215.208 356.549 C 217.729 352.404,220.073 348.666,220.417 348.242 C 220.998 347.525,221.393 348.047,226.033 355.645 C 228.778 360.141,231.130 363.884,231.260 363.965 C 231.390 364.045,233.727 360.456,236.453 355.989 C 239.180 351.521,241.535 347.790,241.687 347.696 C 241.839 347.602,244.265 351.283,247.078 355.875 C 249.891 360.467,252.326 364.071,252.490 363.883 C 252.653 363.695,254.986 359.932,257.675 355.521 C 260.363 351.109,262.623 347.500,262.697 347.500 C 262.772 347.500,265.037 351.109,267.731 355.521 C 270.425 359.932,272.764 363.696,272.929 363.885 C 273.093 364.073,275.524 360.467,278.331 355.871 C 281.138 351.274,283.556 347.589,283.705 347.681 C 283.854 347.773,286.222 351.523,288.967 356.014 C 293.408 363.279,294.018 364.099,294.503 363.444 C 294.802 363.039,297.146 359.277,299.711 355.083 C 304.056 347.978,304.417 347.510,305.000 348.235 C 305.344 348.663,307.688 352.404,310.208 356.549 C 312.729 360.693,314.907 364.014,315.048 363.927 C 315.189 363.841,317.533 360.112,320.256 355.641 C 322.980 351.169,325.302 347.512,325.417 347.515 C 325.531 347.517,327.846 351.171,330.562 355.635 C 333.277 360.099,335.621 363.827,335.770 363.919 C 335.919 364.011,338.292 360.361,341.042 355.809 C 343.792 351.257,346.135 347.525,346.250 347.517 C 346.581 347.491,356.727 364.203,356.586 364.542 C 356.089 365.734,346.410 381.139,346.228 381.027 C 346.102 380.949,343.758 377.219,341.020 372.738 C 338.282 368.257,335.948 364.593,335.833 364.596 C 335.719 364.600,333.563 368.008,331.042 372.170 C 328.521 376.332,326.177 380.068,325.833 380.472 C 325.258 381.149,324.808 380.544,320.208 372.909 C 317.458 368.345,315.114 364.605,314.998 364.597 C 314.883 364.590,312.550 368.251,309.814 372.733 C 307.078 377.216,304.732 380.950,304.601 381.031 C 304.469 381.112,302.136 377.534,299.416 373.079 C 296.696 368.624,294.335 364.896,294.170 364.794 C 294.005 364.692,291.574 368.365,288.767 372.956 C 285.961 377.547,283.607 381.245,283.537 381.173 C 283.467 381.101,281.223 377.479,278.551 373.125 C 275.878 368.771,273.543 365.055,273.360 364.868 C 273.177 364.680,270.821 368.149,268.124 372.576 C 265.428 377.003,263.089 380.774,262.926 380.955 C 262.764 381.137,260.328 377.514,257.513 372.904 C 254.698 368.294,252.244 364.677,252.060 364.865 C 251.875 365.054,249.538 368.771,246.866 373.125 C 244.194 377.479,241.950 381.101,241.880 381.173 C 241.809 381.245,239.456 377.547,236.649 372.956 C 233.843 368.365,231.399 364.699,231.219 364.811 C 231.038 364.923,228.680 368.652,225.978 373.099 C 223.276 377.546,220.955 381.117,220.821 381.034 C 220.687 380.951,218.339 377.216,215.603 372.733 C 212.867 368.251,210.534 364.587,210.419 364.592 C 210.303 364.597,207.958 368.340,205.208 372.909 C 202.458 377.479,200.115 381.217,200.000 381.217 C 199.885 381.217,197.542 377.479,194.792 372.909 C 192.042 368.340,189.697 364.597,189.581 364.592 C 189.466 364.587,187.133 368.251,184.397 372.733 C 181.661 377.216,179.313 380.951,179.179 381.034 C 179.045 381.117,176.724 377.546,174.022 373.099 C 171.320 368.652,168.962 364.923,168.781 364.811 C 168.601 364.699,166.157 368.365,163.351 372.956 C 160.544 377.547,158.191 381.245,158.120 381.173 C 158.050 381.101,155.806 377.479,153.134 373.125 C 150.462 368.771,148.126 365.055,147.943 364.868 C 147.760 364.680,145.404 368.149,142.708 372.576 C 140.011 377.003,137.672 380.774,137.510 380.955 C 137.347 381.137,134.911 377.514,132.096 372.904 C 129.281 368.294,126.827 364.677,126.643 364.865 C 126.459 365.054,124.122 368.771,121.449 373.125 C 118.777 377.479,116.533 381.101,116.463 381.173 C 116.393 381.245,114.039 377.547,111.233 372.956 C 108.426 368.365,105.995 364.692,105.830 364.794 C 105.665 364.896,103.304 368.624,100.584 373.079 C 97.864 377.534,95.531 381.112,95.399 381.031 C 95.268 380.950,92.922 377.216,90.186 372.733 C 87.450 368.251,85.117 364.590,85.002 364.597 C 84.886 364.605,82.542 368.345,79.792 372.909 C 75.192 380.544,74.742 381.149,74.167 380.472 C 73.823 380.068,71.479 376.332,68.958 372.170 C 66.438 368.008,64.281 364.600,64.167 364.596 C 64.052 364.593,61.718 368.257,58.980 372.738 C 56.242 377.219,53.898 380.949,53.772 381.027 C 53.590 381.139,43.911 365.734,43.414 364.542 C 43.273 364.203,53.419 347.491,53.750 347.517 C 53.865 347.525,56.208 351.257,58.958 355.809 M58.958 389.963 C 61.708 394.510,64.072 398.166,64.210 398.087 C 64.348 398.007,66.692 394.282,69.418 389.807 C 72.145 385.333,74.469 381.672,74.583 381.673 C 74.698 381.673,77.032 385.340,79.770 389.822 C 82.508 394.303,84.852 398.030,84.978 398.104 C 85.105 398.179,87.458 394.517,90.208 389.967 C 92.958 385.417,95.314 381.688,95.444 381.681 C 95.574 381.673,97.983 385.429,100.798 390.027 C 103.614 394.626,105.970 398.329,106.034 398.257 C 106.098 398.184,108.260 394.656,110.839 390.417 C 113.417 386.177,115.756 382.461,116.037 382.158 C 116.449 381.713,117.537 383.226,121.666 389.981 C 124.480 394.587,126.859 398.280,126.952 398.187 C 127.045 398.094,129.340 394.386,132.052 389.947 C 134.764 385.507,137.118 381.875,137.282 381.875 C 137.446 381.875,139.828 385.531,142.575 390.000 C 145.322 394.468,147.624 398.179,147.691 398.247 C 147.758 398.314,150.108 394.613,152.913 390.023 C 155.718 385.433,158.152 381.763,158.321 381.867 C 158.490 381.972,160.859 385.719,163.585 390.194 C 167.976 397.403,168.603 398.248,169.083 397.603 C 169.380 397.203,171.716 393.453,174.273 389.271 C 176.830 385.089,179.024 381.673,179.149 381.681 C 179.273 381.688,181.625 385.417,184.375 389.967 C 187.125 394.517,189.488 398.173,189.627 398.091 C 189.765 398.009,192.109 394.282,194.835 389.807 C 197.561 385.333,199.885 381.672,200.000 381.672 C 200.115 381.672,202.439 385.333,205.165 389.807 C 207.891 394.282,210.235 398.009,210.373 398.091 C 210.512 398.173,212.875 394.517,215.625 389.967 C 218.375 385.417,220.727 381.688,220.851 381.681 C 220.976 381.673,223.170 385.089,225.727 389.271 C 228.284 393.453,230.620 397.203,230.917 397.603 C 231.397 398.248,232.024 397.403,236.415 390.194 C 239.141 385.719,241.510 381.972,241.679 381.867 C 241.848 381.763,244.282 385.433,247.087 390.023 C 249.892 394.613,252.242 398.314,252.309 398.247 C 252.376 398.179,254.678 394.468,257.425 390.000 C 260.172 385.531,262.569 381.899,262.751 381.929 C 262.933 381.958,265.287 385.590,267.981 390.000 C 270.675 394.410,272.955 398.094,273.048 398.187 C 273.141 398.280,275.520 394.587,278.334 389.981 C 282.463 383.226,283.551 381.713,283.963 382.158 C 284.244 382.461,286.583 386.177,289.161 390.417 C 291.740 394.656,293.902 398.184,293.966 398.257 C 294.030 398.329,296.386 394.626,299.202 390.027 C 302.017 385.429,304.426 381.673,304.556 381.681 C 304.686 381.688,307.042 385.417,309.792 389.967 C 312.542 394.517,314.895 398.179,315.022 398.104 C 315.148 398.030,317.492 394.303,320.230 389.822 C 322.968 385.340,325.302 381.673,325.417 381.673 C 325.531 381.672,327.855 385.333,330.582 389.807 C 333.308 394.282,335.652 398.007,335.790 398.087 C 335.928 398.166,338.292 394.510,341.042 389.963 C 343.792 385.415,346.141 381.688,346.262 381.681 C 346.384 381.673,348.788 385.424,351.605 390.017 L 356.726 398.367 355.577 400.329 C 354.946 401.409,352.601 405.261,350.367 408.890 L 346.306 415.489 345.316 413.890 C 344.771 413.011,342.462 409.246,340.184 405.523 C 337.906 401.801,335.948 398.756,335.833 398.758 C 335.719 398.759,333.399 402.414,330.679 406.880 C 327.959 411.346,325.586 415.000,325.407 415.000 C 325.228 415.000,322.860 411.348,320.145 406.884 C 317.430 402.421,315.109 398.765,314.987 398.759 C 314.865 398.754,312.672 402.172,310.114 406.354 C 307.557 410.536,305.219 414.280,304.919 414.672 C 304.439 415.303,303.839 414.502,299.792 407.824 C 297.271 403.665,294.918 399.901,294.562 399.460 C 293.953 398.701,293.630 399.126,288.785 407.060 C 284.270 414.454,283.592 415.373,283.144 414.711 C 282.864 414.297,280.701 410.771,278.338 406.875 C 275.974 402.979,273.812 399.541,273.532 399.235 C 273.121 398.785,272.081 400.225,268.113 406.735 C 265.413 411.166,263.078 414.937,262.925 415.114 C 262.772 415.291,260.341 411.664,257.523 407.054 C 253.367 400.254,252.303 398.777,251.888 399.232 C 251.607 399.540,249.443 402.979,247.079 406.875 C 244.716 410.771,242.553 414.297,242.273 414.711 C 241.825 415.373,241.151 414.460,236.660 407.107 C 233.854 402.511,231.441 398.757,231.299 398.766 C 231.158 398.775,228.792 402.519,226.042 407.086 C 221.628 414.415,220.978 415.305,220.497 414.673 C 220.198 414.280,217.860 410.536,215.302 406.354 C 212.744 402.172,210.552 398.752,210.430 398.755 C 210.308 398.758,207.983 402.414,205.262 406.880 C 202.542 411.346,200.174 415.000,200.000 415.000 C 199.826 415.000,197.458 411.346,194.738 406.880 C 192.017 402.414,189.692 398.758,189.570 398.755 C 189.448 398.752,187.256 402.172,184.698 406.354 C 182.140 410.536,179.802 414.280,179.503 414.673 C 179.022 415.305,178.372 414.415,173.958 407.086 C 171.208 402.519,168.842 398.775,168.701 398.766 C 168.559 398.757,166.146 402.511,163.340 407.107 C 158.849 414.460,158.175 415.373,157.727 414.711 C 157.447 414.297,155.284 410.771,152.921 406.875 C 150.557 402.979,148.395 399.541,148.115 399.235 C 147.704 398.785,146.664 400.225,142.697 406.735 C 139.996 411.166,137.662 414.937,137.509 415.114 C 137.355 415.291,134.925 411.664,132.107 407.054 C 127.950 400.254,126.887 398.777,126.471 399.232 C 126.190 399.540,124.026 402.979,121.662 406.875 C 119.299 410.771,117.136 414.297,116.856 414.711 C 116.408 415.373,115.730 414.454,111.215 407.060 C 106.370 399.126,106.047 398.701,105.438 399.460 C 105.082 399.901,102.729 403.665,100.208 407.824 C 96.161 414.502,95.561 415.303,95.081 414.672 C 94.781 414.280,92.443 410.536,89.886 406.354 C 87.328 402.172,85.135 398.754,85.013 398.759 C 84.891 398.765,82.570 402.421,79.855 406.884 C 77.140 411.348,74.772 415.000,74.593 415.000 C 74.414 415.000,72.041 411.346,69.321 406.880 C 66.601 402.414,64.281 398.759,64.167 398.758 C 64.052 398.756,62.094 401.801,59.816 405.523 C 57.538 409.246,55.229 413.011,54.684 413.890 L 53.694 415.489 49.633 408.890 C 47.399 405.261,45.054 401.409,44.423 400.329 L 43.274 398.367 48.395 390.017 C 51.212 385.424,53.616 381.673,53.738 381.681 C 53.859 381.688,56.208 385.415,58.958 389.963 M58.895 423.968 C 61.610 428.431,63.971 432.083,64.142 432.083 C 64.313 432.083,66.685 428.427,69.412 423.958 C 72.140 419.490,74.467 415.833,74.585 415.833 C 74.702 415.833,77.033 419.490,79.765 423.958 C 82.497 428.427,84.871 432.083,85.041 432.083 C 85.211 432.083,87.568 428.432,90.279 423.969 C 92.990 419.506,95.318 415.850,95.453 415.844 C 95.587 415.838,97.998 419.589,100.810 424.179 L 105.922 432.524 107.045 430.741 C 107.663 429.761,109.911 426.099,112.040 422.605 C 114.169 419.111,116.062 416.158,116.247 416.043 C 116.544 415.860,125.829 430.502,126.463 432.154 C 126.644 432.625,117.815 447.937,116.467 449.490 C 116.412 449.554,114.072 445.851,111.267 441.261 C 108.462 436.672,106.046 432.923,105.896 432.931 C 105.747 432.939,103.347 436.702,100.564 441.293 L 95.502 449.641 90.383 441.279 C 87.567 436.680,85.157 432.918,85.027 432.919 C 84.898 432.921,82.565 436.577,79.843 441.044 C 77.121 445.512,74.760 449.167,74.597 449.167 C 74.433 449.167,72.066 445.512,69.337 441.045 C 66.608 436.578,64.279 432.922,64.162 432.920 C 64.044 432.918,62.651 435.026,61.066 437.604 C 59.480 440.182,57.170 443.939,55.931 445.953 L 53.680 449.615 48.920 441.858 C 46.303 437.592,43.966 433.736,43.727 433.291 C 43.322 432.534,52.894 415.811,53.713 415.843 C 53.848 415.848,56.180 419.504,58.895 423.968 M142.692 424.303 C 145.336 428.613,147.500 432.328,147.500 432.559 C 147.500 432.908,139.302 446.569,137.733 448.834 C 137.273 449.498,127.083 433.943,127.083 432.577 C 127.083 432.259,133.378 421.705,136.538 416.726 C 137.337 415.467,137.064 415.131,142.692 424.303 M162.544 422.605 C 164.672 426.099,166.922 429.764,167.543 430.750 L 168.673 432.541 173.779 424.187 C 176.587 419.593,178.995 415.838,179.130 415.844 C 179.265 415.850,181.593 419.506,184.304 423.969 C 187.016 428.432,189.377 432.083,189.552 432.083 C 189.727 432.083,192.101 428.427,194.829 423.958 C 197.556 419.490,199.883 415.833,200.000 415.833 C 200.117 415.833,202.444 419.490,205.171 423.958 C 207.899 428.427,210.273 432.083,210.448 432.083 C 210.623 432.083,212.984 428.432,215.696 423.969 C 218.407 419.506,220.735 415.850,220.870 415.844 C 221.005 415.838,223.413 419.593,226.221 424.187 L 231.327 432.541 232.457 430.750 C 233.078 429.764,235.328 426.099,237.456 422.605 C 239.585 419.111,241.480 416.157,241.667 416.042 C 241.958 415.862,251.280 430.591,251.904 432.217 C 252.060 432.624,243.205 447.881,241.878 449.490 C 241.826 449.554,239.488 445.851,236.684 441.261 C 233.879 436.672,231.462 432.923,231.313 432.931 C 231.164 432.939,228.762 436.699,225.975 441.285 L 220.909 449.625 215.794 441.271 C 212.981 436.676,210.574 432.918,210.444 432.920 C 210.314 432.922,207.975 436.578,205.246 441.045 C 202.517 445.512,200.156 449.167,200.000 449.167 C 199.844 449.167,197.483 445.512,194.754 441.045 C 192.025 436.578,189.686 432.922,189.556 432.920 C 189.426 432.918,187.019 436.676,184.206 441.271 L 179.091 449.625 174.025 441.285 C 171.238 436.699,168.836 432.939,168.687 432.931 C 168.538 432.923,166.121 436.672,163.316 441.261 C 160.512 445.851,158.174 449.554,158.122 449.490 C 156.795 447.881,147.940 432.624,148.096 432.217 C 148.720 430.591,158.042 415.862,158.333 416.042 C 158.520 416.157,160.415 419.111,162.544 422.605 M268.124 424.346 C 270.760 428.663,272.917 432.371,272.917 432.586 C 272.917 432.916,264.650 446.668,263.150 448.834 C 262.683 449.506,252.500 433.934,252.500 432.548 C 252.500 432.209,258.166 422.729,261.957 416.726 C 262.757 415.459,262.510 415.154,268.124 424.346 M287.960 422.605 C 290.089 426.099,292.337 429.761,292.955 430.741 L 294.078 432.524 299.190 424.179 C 302.002 419.589,304.413 415.838,304.547 415.844 C 304.682 415.850,307.010 419.506,309.721 423.969 C 312.432 428.432,314.789 432.083,314.959 432.083 C 315.129 432.083,317.503 428.427,320.235 423.958 C 322.967 419.490,325.298 415.833,325.415 415.833 C 325.533 415.833,327.860 419.490,330.588 423.958 C 333.315 428.427,335.687 432.083,335.858 432.083 C 336.029 432.083,338.390 428.431,341.105 423.968 C 343.820 419.504,346.152 415.848,346.287 415.843 C 347.106 415.811,356.678 432.534,356.273 433.291 C 356.034 433.736,353.697 437.592,351.080 441.858 L 346.320 449.615 344.069 445.953 C 342.830 443.939,340.520 440.182,338.934 437.604 C 337.349 435.026,335.956 432.918,335.838 432.920 C 335.721 432.922,333.392 436.578,330.663 441.045 C 327.934 445.512,325.567 449.167,325.403 449.167 C 325.240 449.167,322.879 445.512,320.157 441.044 C 317.435 436.577,315.102 432.921,314.973 432.919 C 314.843 432.918,312.433 436.680,309.617 441.279 L 304.498 449.641 299.436 441.293 C 296.653 436.702,294.253 432.939,294.104 432.931 C 293.954 432.923,291.538 436.672,288.733 441.261 C 285.928 445.851,283.588 449.554,283.533 449.490 C 282.185 447.937,273.356 432.625,273.537 432.154 C 274.171 430.502,283.456 415.860,283.753 416.043 C 283.938 416.158,285.831 419.111,287.960 422.605 M58.907 458.128 C 61.629 462.595,63.979 466.250,64.130 466.250 C 64.282 466.250,66.644 462.594,69.380 458.125 C 72.117 453.656,74.460 450.000,74.589 450.000 C 74.717 450.000,77.061 453.656,79.797 458.125 C 82.533 462.594,84.895 466.250,85.044 466.250 C 85.194 466.250,87.542 462.596,90.262 458.130 C 92.983 453.664,95.326 450.008,95.469 450.005 C 95.613 450.002,98.026 453.757,100.833 458.349 L 105.935 466.698 110.988 458.367 C 113.768 453.786,116.168 450.028,116.323 450.018 C 116.607 450.000,125.988 465.065,126.452 466.285 C 126.610 466.701,124.843 469.971,121.685 475.110 C 118.925 479.601,116.667 483.489,116.667 483.750 C 116.667 484.011,118.925 487.899,121.685 492.390 C 124.843 497.529,126.610 500.799,126.452 501.215 C 125.991 502.427,116.608 517.500,116.323 517.486 C 116.168 517.479,114.782 515.370,113.242 512.799 C 111.702 510.228,109.430 506.474,108.193 504.456 L 105.944 500.787 100.837 509.143 C 98.029 513.739,95.613 517.499,95.469 517.497 C 95.326 517.496,92.990 513.839,90.280 509.372 C 87.569 504.905,85.221 501.250,85.062 501.250 C 84.903 501.250,82.533 504.906,79.797 509.375 C 77.061 513.844,74.713 517.500,74.579 517.500 C 74.446 517.500,72.111 513.844,69.391 509.375 C 66.671 504.906,64.312 501.250,64.150 501.250 C 63.988 501.250,61.629 504.905,58.907 509.372 C 56.185 513.840,53.842 517.496,53.701 517.497 C 53.290 517.502,43.255 500.883,43.454 500.529 C 45.166 497.480,53.496 484.167,53.692 484.167 C 53.841 484.167,56.194 487.823,58.921 492.292 C 61.649 496.760,63.993 500.417,64.131 500.417 C 64.268 500.417,66.616 496.760,69.348 492.292 C 72.080 487.823,74.440 484.167,74.593 484.167 C 74.745 484.167,77.101 487.823,79.829 492.292 C 82.556 496.760,84.900 500.417,85.036 500.417 C 85.172 500.417,87.517 496.762,90.246 492.295 C 92.975 487.828,95.334 484.172,95.487 484.170 C 95.641 484.168,97.984 487.818,100.696 492.281 C 103.407 496.744,105.747 500.400,105.895 500.406 C 106.322 500.423,116.012 484.469,116.012 483.750 C 116.012 483.031,106.322 467.077,105.895 467.094 C 105.747 467.100,103.407 470.756,100.696 475.219 C 97.984 479.682,95.641 483.332,95.487 483.330 C 95.334 483.328,92.975 479.672,90.246 475.205 C 87.517 470.738,85.172 467.083,85.036 467.083 C 84.900 467.083,82.556 470.740,79.829 475.208 C 77.101 479.677,74.745 483.333,74.593 483.333 C 74.440 483.333,72.080 479.677,69.348 475.208 C 66.616 470.740,64.268 467.083,64.131 467.083 C 63.993 467.083,61.649 470.740,58.921 475.208 C 56.194 479.677,53.841 483.333,53.692 483.333 C 53.496 483.333,45.166 470.020,43.454 466.971 C 43.255 466.617,53.290 449.998,53.701 450.003 C 53.842 450.004,56.185 453.660,58.907 458.128 M142.852 458.646 C 145.409 462.828,147.500 466.441,147.500 466.675 C 147.500 466.908,145.250 470.764,142.500 475.243 C 139.750 479.721,137.500 483.550,137.500 483.750 C 137.500 483.950,139.750 487.779,142.500 492.257 C 145.250 496.736,147.488 500.638,147.472 500.929 C 147.430 501.747,137.763 517.167,137.292 517.170 C 136.856 517.172,127.083 501.503,127.083 500.802 C 127.083 500.581,129.333 496.736,132.083 492.257 C 134.833 487.779,137.083 483.949,137.083 483.747 C 137.083 483.544,134.833 479.710,132.083 475.225 C 129.333 470.741,127.083 466.886,127.083 466.658 C 127.083 466.318,131.006 459.766,136.153 451.511 C 137.406 449.500,136.996 449.063,142.852 458.646 M163.599 458.373 L 168.656 466.710 173.758 458.355 C 176.564 453.760,178.975 450.002,179.117 450.005 C 179.259 450.008,181.601 453.664,184.321 458.130 C 187.041 462.596,189.392 466.250,189.544 466.250 C 189.697 466.250,192.061 462.594,194.797 458.125 C 197.533 453.656,199.875 450.000,200.000 450.000 C 200.125 450.000,202.467 453.656,205.203 458.125 C 207.939 462.594,210.303 466.250,210.456 466.250 C 210.608 466.250,212.959 462.596,215.679 458.130 C 218.399 453.664,220.741 450.008,220.883 450.005 C 221.025 450.002,223.436 453.760,226.242 458.355 L 231.344 466.710 236.401 458.373 C 239.183 453.788,241.585 450.028,241.739 450.018 C 242.023 450.000,251.404 465.063,251.866 466.279 C 252.021 466.687,250.225 470.011,247.099 475.097 C 244.340 479.587,242.083 483.477,242.083 483.743 C 242.083 484.008,244.342 487.899,247.102 492.390 C 250.141 497.336,252.023 500.805,251.876 501.190 C 251.408 502.408,242.019 517.500,241.739 517.482 C 241.585 517.472,239.183 513.712,236.401 509.127 L 231.344 500.790 226.242 509.145 C 223.436 513.740,221.025 517.498,220.883 517.495 C 220.741 517.492,218.399 513.836,215.679 509.370 C 212.959 504.904,210.608 501.250,210.456 501.250 C 210.303 501.250,207.939 504.906,205.203 509.375 C 202.467 513.844,200.125 517.500,200.000 517.500 C 199.875 517.500,197.533 513.844,194.797 509.375 C 192.061 504.906,189.697 501.250,189.544 501.250 C 189.392 501.250,187.041 504.904,184.321 509.370 C 181.601 513.836,179.259 517.492,179.117 517.495 C 178.975 517.498,176.564 513.740,173.758 509.145 L 168.656 500.790 163.599 509.127 C 160.817 513.712,158.415 517.472,158.261 517.482 C 157.981 517.500,148.592 502.408,148.124 501.190 C 147.977 500.805,149.859 497.336,152.898 492.390 C 155.658 487.899,157.917 484.008,157.917 483.743 C 157.917 483.477,155.660 479.587,152.901 475.097 C 149.775 470.011,147.979 466.687,148.134 466.279 C 148.596 465.063,157.977 450.000,158.261 450.018 C 158.415 450.028,160.817 453.788,163.599 458.373 M268.269 458.646 C 270.825 462.828,272.917 466.435,272.917 466.661 C 272.917 466.887,270.667 470.741,267.917 475.225 C 265.167 479.710,262.917 483.544,262.917 483.747 C 262.917 483.949,265.167 487.779,267.917 492.257 C 270.667 496.736,272.917 500.581,272.917 500.802 C 272.917 501.504,263.069 517.294,262.672 517.229 C 262.204 517.153,252.566 501.666,252.528 500.929 C 252.512 500.638,254.750 496.736,257.500 492.257 C 260.250 487.779,262.500 483.950,262.500 483.750 C 262.500 483.550,260.250 479.721,257.500 475.243 C 254.750 470.764,252.500 466.907,252.500 466.672 C 252.500 466.320,256.370 459.850,261.569 451.511 C 262.823 449.500,262.412 449.063,268.269 458.646 M289.012 458.367 L 294.065 466.698 299.167 458.349 C 301.974 453.757,304.387 450.002,304.531 450.005 C 304.674 450.008,307.017 453.664,309.738 458.130 C 312.458 462.596,314.806 466.250,314.956 466.250 C 315.105 466.250,317.467 462.594,320.203 458.125 C 322.939 453.656,325.283 450.000,325.411 450.000 C 325.540 450.000,327.883 453.656,330.620 458.125 C 333.356 462.594,335.718 466.250,335.870 466.250 C 336.021 466.250,338.371 462.595,341.093 458.128 C 343.815 453.660,346.158 450.004,346.299 450.003 C 346.710 449.998,356.745 466.617,356.546 466.971 C 354.834 470.020,346.504 483.333,346.308 483.333 C 346.159 483.333,343.806 479.677,341.079 475.208 C 338.351 470.740,336.007 467.083,335.869 467.083 C 335.732 467.083,333.384 470.740,330.652 475.208 C 327.920 479.677,325.560 483.333,325.407 483.333 C 325.255 483.333,322.899 479.677,320.171 475.208 C 317.444 470.740,315.100 467.083,314.964 467.083 C 314.828 467.083,312.483 470.738,309.754 475.205 C 307.025 479.672,304.666 483.328,304.513 483.330 C 304.359 483.332,302.016 479.682,299.304 475.219 C 296.593 470.756,294.248 467.100,294.094 467.094 C 293.660 467.078,283.988 483.019,283.988 483.750 C 283.988 484.469,293.678 500.423,294.105 500.406 C 294.253 500.400,296.593 496.744,299.304 492.281 C 302.016 487.818,304.359 484.168,304.513 484.170 C 304.666 484.172,307.025 487.828,309.754 492.295 C 312.483 496.762,314.828 500.417,314.964 500.417 C 315.100 500.417,317.444 496.760,320.171 492.292 C 322.899 487.823,325.255 484.167,325.407 484.167 C 325.560 484.167,327.920 487.823,330.652 492.292 C 333.384 496.760,335.732 500.417,335.869 500.417 C 336.007 500.417,338.351 496.760,341.079 492.292 C 343.806 487.823,346.159 484.167,346.308 484.167 C 346.504 484.167,354.834 497.480,356.546 500.529 C 356.745 500.884,346.709 517.503,346.299 517.495 C 346.158 517.492,343.816 513.836,341.096 509.370 C 338.376 504.904,336.025 501.250,335.872 501.250 C 335.720 501.250,333.356 504.906,330.620 509.375 C 327.883 513.844,325.540 517.500,325.411 517.500 C 325.283 517.500,322.939 513.844,320.203 509.375 C 317.467 504.906,315.097 501.250,314.938 501.250 C 314.779 501.250,312.431 504.905,309.720 509.372 C 307.010 513.839,304.674 517.496,304.531 517.497 C 304.387 517.499,301.971 513.739,299.163 509.143 L 294.056 500.787 291.807 504.456 C 290.570 506.474,288.298 510.228,286.758 512.799 C 285.218 515.370,283.832 517.479,283.677 517.486 C 283.392 517.500,274.009 502.427,273.548 501.215 C 273.390 500.799,275.157 497.529,278.315 492.390 C 281.075 487.899,283.333 484.011,283.333 483.750 C 283.333 483.489,281.075 479.601,278.315 475.110 C 275.157 469.971,273.390 466.701,273.548 466.285 C 274.012 465.065,283.393 450.000,283.677 450.018 C 283.832 450.028,286.232 453.786,289.012 458.367 M163.495 475.094 C 160.787 479.500,158.571 483.395,158.571 483.750 C 158.571 484.469,168.262 500.423,168.688 500.406 C 168.837 500.400,171.177 496.744,173.888 492.281 C 176.599 487.818,178.943 484.168,179.096 484.170 C 179.249 484.172,181.608 487.828,184.337 492.295 C 187.066 496.762,189.411 500.417,189.549 500.417 C 189.686 500.417,192.033 496.760,194.765 492.292 C 197.497 487.823,199.857 484.167,200.009 484.167 C 200.162 484.167,202.518 487.823,205.246 492.292 C 207.973 496.760,210.316 500.417,210.453 500.417 C 210.589 500.417,212.934 496.762,215.663 492.295 C 218.392 487.828,220.751 484.172,220.904 484.170 C 221.057 484.168,223.401 487.818,226.112 492.281 C 228.823 496.744,231.163 500.400,231.312 500.406 C 231.738 500.423,241.429 484.469,241.429 483.750 C 241.429 483.032,231.739 467.078,231.312 467.093 C 231.163 467.098,228.820 470.754,226.105 475.218 C 223.390 479.681,221.047 483.332,220.897 483.330 C 220.747 483.328,218.392 479.672,215.663 475.205 C 212.934 470.738,210.589 467.083,210.451 467.083 C 210.314 467.083,207.967 470.740,205.235 475.208 C 202.503 479.677,200.147 483.333,200.000 483.333 C 199.853 483.333,197.497 479.677,194.765 475.208 C 192.033 470.740,189.686 467.083,189.549 467.083 C 189.411 467.083,187.066 470.738,184.337 475.205 C 181.608 479.672,179.253 483.328,179.103 483.330 C 178.953 483.332,176.610 479.681,173.895 475.218 C 171.180 470.754,168.837 467.098,168.688 467.093 C 168.539 467.088,166.202 470.688,163.495 475.094 " stroke="none" fill="#000000" fill-rule="evenodd"></path></g></svg>