<svg id="svg" xmlns="http://www.w3.org/2000/svg" xmlns:xlink="http://www.w3.org/1999/xlink" width="400" height="560" viewBox="0, 0, 400,560"><g id="svgg"><path id="path0" d="M165.417 164.738 C 76.904 190.894,87.391 187.672,85.571 189.270 C 70.228 202.741,86.927 275.352,110.523 297.766 C 115.041 302.057,117.413 303.105,121.892 302.789 C 129.457 302.255,135.220 306.523,142.881 318.333 C 162.775 348.999,172.242 405.867,159.252 416.671 C 158.403 417.377,157.990 417.857,158.333 417.737 C 158.677 417.617,193.311 407.399,235.297 395.029 C 277.283 382.659,312.158 372.265,312.797 371.931 C 330.608 362.629,314.273 285.789,289.477 262.234 C 284.959 257.943,282.587 256.895,278.108 257.211 C 270.543 257.745,264.780 253.477,257.119 241.667 C 237.237 211.020,227.747 154.057,240.739 143.348 C 242.631 141.788,254.056 138.544,165.417 164.738 " stroke="none" fill="#000000" fill-rule="evenodd"></path></g></svg>