<svg id="svg" xmlns="http://www.w3.org/2000/svg" xmlns:xlink="http://www.w3.org/1999/xlink" width="400" height="560" viewBox="0, 0, 400,560"><g id="svgg"><path id="path0" d="M230.780 180.591 C 229.490 181.604,227.622 183.474,226.628 184.747 C 224.863 187.006,224.796 187.046,223.827 186.411 C 220.566 184.274,214.552 183.570,210.000 184.792 C 208.740 185.130,206.865 185.408,205.833 185.410 C 204.802 185.412,202.632 185.807,201.011 186.288 L 198.063 187.161 194.676 184.855 C 191.092 182.414,185.198 180.172,183.492 180.600 C 182.648 180.812,151.063 194.259,148.042 195.692 C 147.295 196.047,145.847 197.463,144.825 198.839 L 142.966 201.341 138.670 201.399 L 134.375 201.458 126.250 204.942 C 115.325 209.626,114.619 210.013,112.216 212.643 C 106.852 218.512,103.333 226.489,103.333 232.781 C 103.333 234.791,103.156 235.230,101.538 237.216 C 100.551 238.428,99.014 240.628,98.124 242.106 C 97.233 243.583,95.229 245.981,93.670 247.434 C 83.525 256.891,80.097 271.483,85.648 281.583 L 87.090 284.208 85.609 286.148 C 77.839 296.323,78.909 310.465,88.162 319.894 C 91.150 322.940,91.592 323.591,92.047 325.627 C 92.615 328.162,94.338 332.634,95.249 333.934 C 95.587 334.416,95.833 335.785,95.833 337.175 L 95.833 339.581 106.029 351.228 C 111.637 357.633,116.594 363.071,117.044 363.312 C 118.219 363.941,123.106 363.840,126.141 363.125 L 128.740 362.512 131.141 364.070 C 132.461 364.927,134.771 366.509,136.273 367.585 C 146.321 374.781,159.436 377.373,170.929 374.436 L 175.400 373.293 177.596 374.935 C 188.330 382.958,200.689 382.657,212.041 374.094 C 214.600 372.165,214.819 372.083,217.458 372.080 C 226.235 372.070,235.300 368.551,241.667 362.681 C 243.457 361.030,243.691 360.941,246.875 360.697 C 262.367 359.507,277.793 347.112,284.817 330.208 C 285.536 328.478,287.013 326.114,288.447 324.396 C 291.277 321.007,293.707 316.373,294.798 312.284 C 295.341 310.250,296.244 308.414,297.798 306.180 C 301.156 301.355,304.583 292.777,304.583 289.198 C 304.583 288.482,305.052 287.628,305.872 286.849 C 321.391 272.108,321.506 245.782,306.121 230.261 L 302.764 226.875 302.680 222.500 C 302.560 216.255,300.439 208.703,298.163 206.416 C 297.405 205.654,276.022 193.039,272.104 191.042 C 270.153 190.047,235.153 178.750,234.024 178.750 C 233.530 178.750,232.070 179.579,230.780 180.591 M233.076 220.995 C 235.138 221.856,236.111 223.578,237.239 228.364 C 238.673 234.442,239.788 235.055,246.667 233.542 C 255.606 231.575,261.250 236.107,261.250 245.252 L 261.250 247.083 259.641 247.083 L 258.032 247.083 257.811 244.640 C 257.153 237.381,254.270 235.294,247.083 236.875 C 238.724 238.714,235.873 237.035,234.021 229.181 C 232.594 223.129,232.267 222.964,226.597 225.449 C 225.069 226.119,223.637 226.667,223.414 226.667 C 223.045 226.667,222.272 223.799,222.577 223.564 C 222.886 223.326,229.033 220.898,229.792 220.715 C 231.235 220.366,231.657 220.402,233.076 220.995 M172.052 248.999 C 173.282 250.212,167.405 262.807,163.726 266.843 C 160.338 270.560,160.100 271.765,161.913 276.042 C 165.235 283.881,165.452 287.723,162.702 290.005 C 162.324 290.319,161.467 291.661,160.798 292.987 C 159.326 295.903,158.133 296.754,155.170 297.000 C 153.292 297.155,152.917 297.074,152.917 296.510 C 152.917 296.014,152.526 295.833,151.458 295.833 C 150.656 295.833,150.000 295.656,150.000 295.440 C 150.000 294.581,151.934 293.750,153.947 293.744 C 156.513 293.736,156.733 293.597,157.917 291.250 C 158.437 290.219,159.399 288.759,160.056 288.006 C 161.589 286.249,161.623 284.052,160.171 280.625 C 156.317 271.531,156.411 269.931,161.099 264.853 C 164.161 261.536,165.993 258.085,167.722 252.376 L 168.958 248.294 170.417 248.559 C 171.219 248.705,171.955 248.903,172.052 248.999 M234.704 313.950 C 235.558 315.741,235.573 315.730,229.897 317.236 C 224.656 318.626,223.595 319.295,223.918 321.009 C 225.099 327.283,224.568 328.639,219.918 331.218 C 216.922 332.879,216.898 332.906,218.386 332.911 C 220.386 332.918,221.161 333.813,220.301 335.125 C 219.584 336.220,214.822 338.899,214.051 338.642 C 213.771 338.548,212.585 338.895,211.416 339.412 L 209.290 340.352 208.607 338.920 L 207.925 337.488 210.583 336.177 C 213.067 334.952,213.256 334.759,213.460 333.234 C 213.736 331.182,214.610 330.211,217.500 328.750 C 221.108 326.926,221.511 326.292,220.913 323.396 C 219.732 317.676,221.081 316.144,229.219 313.966 C 231.312 313.406,233.125 312.847,233.248 312.724 C 233.707 312.265,234.030 312.538,234.704 313.950 " stroke="none" fill="#000000" fill-rule="evenodd"></path></g></svg>