<svg id="svg" xmlns="http://www.w3.org/2000/svg" xmlns:xlink="http://www.w3.org/1999/xlink" width="400" height="560" viewBox="0, 0, 400,560"><g id="svgg"><path id="path0" d="M144.583 148.893 C 134.472 153.310,133.280 154.174,131.001 158.739 C 127.837 165.078,125.803 159.325,157.644 234.104 L 184.142 296.332 178.485 309.625 C 175.374 316.935,172.693 322.917,172.527 322.917 C 172.361 322.917,169.615 321.785,166.425 320.402 C 149.254 312.958,137.738 313.349,125.208 321.802 C 115.369 328.440,105.321 348.088,104.702 361.902 C 104.041 376.663,111.810 390.070,124.792 396.570 C 129.771 399.064,140.299 403.318,143.137 403.984 C 155.488 406.882,168.822 401.361,175.546 390.565 C 177.575 387.308,189.583 358.492,189.583 356.881 C 189.583 356.557,189.831 356.141,190.133 355.958 C 190.436 355.775,192.726 350.797,195.222 344.896 C 197.718 338.995,199.868 334.167,200.000 334.167 C 200.132 334.167,202.282 338.995,204.778 344.896 C 207.274 350.797,209.564 355.775,209.867 355.958 C 210.169 356.141,210.417 356.557,210.417 356.881 C 210.417 358.246,220.018 381.703,223.407 388.617 C 230.911 403.927,247.421 408.531,266.238 400.562 C 284.673 392.755,291.819 385.209,294.825 370.376 C 297.820 355.593,287.389 330.300,274.792 321.802 C 262.262 313.349,250.746 312.958,233.575 320.402 C 230.385 321.785,227.639 322.917,227.473 322.917 C 227.307 322.917,224.626 316.935,221.514 309.624 L 215.858 296.332 242.355 234.103 C 256.929 199.878,269.220 170.750,269.670 169.375 C 271.806 162.839,268.718 155.122,262.785 152.169 C 261.300 151.430,248.388 145.827,248.192 145.837 C 248.155 145.839,237.344 171.239,224.167 202.282 C 210.990 233.324,200.115 258.723,200.000 258.723 C 199.885 258.723,189.010 233.325,175.833 202.282 C 162.656 171.239,151.781 145.852,151.667 145.865 C 151.552 145.879,148.365 147.241,144.583 148.893 M153.825 333.775 C 164.499 337.371,170.025 344.779,169.484 354.767 C 169.240 359.267,164.664 371.690,161.526 376.371 C 149.257 394.674,117.984 380.781,123.529 359.491 C 124.464 355.901,129.365 343.956,130.855 341.632 C 135.476 334.431,145.547 330.987,153.825 333.775 M260.833 334.633 C 267.645 337.905,273.112 346.596,276.471 359.491 C 281.199 377.642,258.019 392.370,242.782 380.896 C 235.500 375.413,228.674 356.624,231.026 348.535 C 234.630 336.136,249.513 329.195,260.833 334.633 " stroke="none" fill="#000000" fill-rule="evenodd"></path></g></svg>