<svg id="svg" xmlns="http://www.w3.org/2000/svg" xmlns:xlink="http://www.w3.org/1999/xlink" width="400" height="225" viewBox="0, 0, 400,225"><g id="svgg"><path id="path0" d="M93.542 38.704 C 92.616 38.905,92.316 39.190,92.384 39.800 C 92.435 40.254,94.008 51.398,95.879 64.564 C 98.168 80.664,99.133 88.553,98.828 88.654 C 98.579 88.738,97.897 89.182,97.313 89.641 L 96.250 90.477 96.250 112.500 L 96.250 134.523 97.348 135.386 C 98.323 136.153,99.017 136.250,103.550 136.250 L 108.654 136.250 109.146 139.613 C 111.741 157.360,125.790 171.668,143.700 174.805 C 148.912 175.718,251.088 175.718,256.300 174.805 C 274.210 171.668,288.259 157.360,290.854 139.613 L 291.346 136.250 296.450 136.250 C 300.983 136.250,301.677 136.153,302.652 135.386 L 303.750 134.523 303.750 112.500 L 303.750 90.477 302.687 89.641 C 302.103 89.182,301.421 88.738,301.172 88.654 C 300.867 88.553,301.832 80.664,304.121 64.564 C 305.992 51.398,307.565 40.254,307.616 39.800 C 307.706 39.001,304.116 37.828,303.492 38.453 C 303.372 38.572,300.853 49.516,297.893 62.773 C 294.934 76.029,292.412 87.297,292.290 87.813 C 291.909 89.417,291.341 88.846,291.045 86.563 C 288.654 68.112,274.599 53.400,256.300 50.195 C 251.088 49.282,148.912 49.282,143.700 50.195 C 125.790 53.332,111.741 67.640,109.146 85.387 C 108.657 88.727,108.136 89.609,107.711 87.813 C 107.589 87.297,105.150 76.375,102.291 63.542 C 99.432 50.708,96.993 39.786,96.872 39.271 C 96.640 38.286,95.979 38.174,93.542 38.704 M184.407 65.313 C 185.344 70.580,187.115 71.252,200.027 71.241 C 213.013 71.229,214.652 70.602,215.600 65.277 L 215.884 63.679 233.046 63.853 C 247.448 64.000,250.610 64.140,252.708 64.726 C 262.160 67.365,269.838 75.109,272.394 84.583 C 273.505 88.700,273.505 136.300,272.394 140.417 C 269.812 149.987,262.070 157.729,252.500 160.311 C 248.331 161.436,151.669 161.436,147.500 160.311 C 137.930 157.729,130.188 149.987,127.606 140.417 C 126.495 136.300,126.495 88.700,127.606 84.583 C 129.997 75.719,137.256 67.954,145.692 65.234 C 149.334 64.060,152.578 63.858,168.627 63.803 L 184.129 63.750 184.407 65.313 M159.289 86.045 C 143.519 89.472,136.183 106.623,144.884 119.720 C 154.618 134.372,178.394 132.802,185.992 117.005 C 194.077 100.198,178.305 81.912,159.289 86.045 M230.000 86.039 C 212.345 90.027,205.860 110.472,218.303 122.915 C 233.918 138.530,261.346 126.225,258.692 104.796 C 257.124 92.138,243.225 83.052,230.000 86.039 M193.249 132.471 C 190.744 133.272,188.106 134.707,186.068 136.376 L 184.844 137.379 185.756 138.537 C 186.257 139.174,186.667 140.139,186.667 140.681 C 186.667 142.016,187.252 141.922,189.305 140.260 C 195.093 135.573,203.573 135.305,209.831 139.610 L 211.759 140.937 213.432 139.264 C 215.360 137.336,215.336 137.247,212.351 135.266 C 207.173 131.829,198.999 130.633,193.249 132.471 " stroke="none" fill="#000000" fill-rule="evenodd"></path></g></svg>