<svg id="svg" xmlns="http://www.w3.org/2000/svg" xmlns:xlink="http://www.w3.org/1999/xlink" width="400" height="225" viewBox="0, 0, 400,225"><g id="svgg"><path id="path0" d="M93.542 38.704 C 92.616 38.905,92.316 39.190,92.384 39.800 C 92.435 40.254,94.008 51.398,95.879 64.564 C 98.168 80.664,99.133 88.553,98.828 88.654 C 98.579 88.738,97.897 89.182,97.313 89.641 L 96.250 90.477 96.250 112.500 L 96.250 134.523 97.348 135.386 C 98.323 136.153,99.017 136.250,103.550 136.250 L 108.654 136.250 109.146 139.613 C 111.741 157.360,125.790 171.668,143.700 174.805 C 148.912 175.718,251.088 175.718,256.300 174.805 C 274.210 171.668,288.259 157.360,290.854 139.613 L 291.346 136.250 296.450 136.250 C 300.983 136.250,301.677 136.153,302.652 135.386 L 303.750 134.523 303.750 112.500 L 303.750 90.477 302.687 89.641 C 302.103 89.182,301.421 88.738,301.172 88.654 C 300.867 88.553,301.832 80.664,304.121 64.564 C 305.992 51.398,307.565 40.254,307.616 39.800 C 307.706 39.001,304.116 37.828,303.492 38.453 C 303.372 38.572,300.853 49.516,297.893 62.773 C 294.934 76.029,292.412 87.297,292.290 87.813 C 291.909 89.417,291.341 88.846,291.045 86.563 C 288.654 68.112,274.599 53.400,256.300 50.195 C 251.088 49.282,148.912 49.282,143.700 50.195 C 125.790 53.332,111.741 67.640,109.146 85.387 C 108.657 88.727,108.136 89.609,107.711 87.813 C 107.589 87.297,105.150 76.375,102.291 63.542 C 99.432 50.708,96.993 39.786,96.872 39.271 C 96.640 38.286,95.979 38.174,93.542 38.704 M184.407 65.313 C 185.344 70.580,187.115 71.252,200.027 71.241 C 213.013 71.229,214.652 70.602,215.600 65.277 L 215.884 63.679 233.046 63.853 C 247.448 64.000,250.610 64.140,252.708 64.726 C 262.160 67.365,269.838 75.109,272.394 84.583 C 273.505 88.700,273.505 136.300,272.394 140.417 C 269.812 149.987,262.070 157.729,252.500 160.311 C 248.331 161.436,151.669 161.436,147.500 160.311 C 137.930 157.729,130.188 149.987,127.606 140.417 C 126.495 136.300,126.495 88.700,127.606 84.583 C 129.997 75.719,137.256 67.954,145.692 65.234 C 149.334 64.060,152.578 63.858,168.627 63.803 L 184.129 63.750 184.407 65.313 M157.074 84.698 C 141.132 90.134,136.402 112.081,148.532 124.338 C 162.408 138.362,184.985 127.960,185.078 107.500 C 185.151 91.453,171.016 79.944,157.074 84.698 M231.213 84.352 C 214.128 89.065,209.133 112.968,222.657 125.301 C 234.684 136.271,253.299 129.969,257.510 113.502 C 261.925 96.241,247.217 79.937,231.213 84.352 M213.750 134.375 C 213.750 135.585,213.470 135.669,212.465 134.760 C 211.797 134.156,211.566 134.222,209.579 135.589 C 204.013 139.418,195.902 139.334,190.169 135.390 L 188.241 134.063 186.568 135.736 C 184.640 137.664,184.664 137.753,187.649 139.734 C 195.278 144.798,205.945 144.585,213.052 139.227 C 215.752 137.191,216.568 135.346,215.394 133.931 C 214.610 132.986,213.750 133.218,213.750 134.375 " stroke="none" fill="#000000" fill-rule="evenodd"></path></g></svg>