<svg id="svg" xmlns="http://www.w3.org/2000/svg" xmlns:xlink="http://www.w3.org/1999/xlink" width="400" height="225" viewBox="0, 0, 400,225"><g id="svgg"><path id="path0" d="M98.333 38.292 C 96.493 38.537,96.460 38.569,96.549 40.000 C 96.598 40.802,97.057 52.090,97.568 65.084 L 98.498 88.709 97.374 89.593 L 96.250 90.477 96.250 112.500 L 96.250 134.523 97.348 135.386 C 98.323 136.153,99.017 136.250,103.550 136.250 L 108.654 136.250 109.146 139.613 C 111.741 157.360,125.790 171.668,143.700 174.805 C 148.912 175.718,251.088 175.718,256.300 174.805 C 274.210 171.668,288.259 157.360,290.854 139.613 L 291.346 136.250 296.450 136.250 C 300.983 136.250,301.677 136.153,302.652 135.386 L 303.750 134.523 303.750 112.500 L 303.750 90.477 302.687 89.641 C 302.103 89.182,301.489 88.746,301.324 88.674 C 301.158 88.601,301.436 78.979,301.941 67.292 C 302.446 55.604,302.872 44.326,302.888 42.229 L 302.917 38.417 300.938 38.240 C 299.849 38.143,298.884 38.120,298.793 38.190 C 298.702 38.260,297.256 49.617,295.580 63.429 C 293.904 77.241,292.525 88.589,292.516 88.646 C 292.339 89.793,291.267 88.275,291.045 86.563 C 288.654 68.112,274.599 53.400,256.300 50.195 C 251.088 49.282,148.912 49.282,143.700 50.195 C 125.790 53.332,111.741 67.640,109.146 85.387 C 108.739 88.170,108.524 88.750,107.902 88.750 C 106.914 88.750,107.118 90.055,103.968 63.542 C 100.946 38.108,100.916 37.891,100.502 37.979 C 100.340 38.014,99.365 38.154,98.333 38.292 M184.407 65.313 C 185.344 70.580,187.115 71.252,200.027 71.241 C 213.013 71.229,214.652 70.602,215.600 65.277 L 215.884 63.679 233.046 63.853 C 247.448 64.000,250.610 64.140,252.708 64.726 C 262.160 67.365,269.838 75.109,272.394 84.583 C 273.505 88.700,273.505 136.300,272.394 140.417 C 269.812 149.987,262.070 157.729,252.500 160.311 C 248.331 161.436,151.669 161.436,147.500 160.311 C 137.930 157.729,130.188 149.987,127.606 140.417 C 126.495 136.300,126.495 88.700,127.606 84.583 C 129.997 75.719,137.256 67.954,145.692 65.234 C 149.334 64.060,152.578 63.858,168.627 63.803 L 184.129 63.750 184.407 65.313 M157.422 84.533 C 145.429 89.345,140.339 106.520,146.942 119.896 C 148.656 123.370,148.715 123.403,149.750 121.482 C 155.092 111.563,171.269 111.652,175.399 121.625 C 176.161 123.464,176.441 123.285,178.098 119.896 C 187.050 101.584,173.345 78.143,157.422 84.533 M232.422 84.533 C 220.252 89.416,215.239 106.267,221.902 119.896 C 223.559 123.285,223.839 123.464,224.601 121.625 C 228.735 111.643,244.903 111.553,250.250 121.482 C 251.285 123.403,251.344 123.370,253.058 119.896 C 262.003 101.775,248.238 78.186,232.422 84.533 M186.676 135.521 C 186.694 144.908,188.820 146.673,200.091 146.658 C 211.219 146.643,213.333 144.850,213.333 135.430 L 213.333 130.833 200.000 130.833 L 186.667 130.833 186.676 135.521 " stroke="none" fill="#000000" fill-rule="evenodd"></path></g></svg>