<svg id="svg" xmlns="http://www.w3.org/2000/svg" xmlns:xlink="http://www.w3.org/1999/xlink" width="400" height="225" viewBox="0, 0, 400,225"><g id="svgg"><path id="path0" d="M81.354 41.718 C 79.135 42.738,78.152 39.578,88.915 66.021 L 98.234 88.917 97.242 89.697 L 96.250 90.477 96.250 112.500 L 96.250 134.523 97.348 135.386 C 98.323 136.153,99.017 136.250,103.550 136.250 L 108.654 136.250 109.146 139.613 C 111.741 157.360,125.790 171.668,143.700 174.805 C 148.912 175.718,251.088 175.718,256.300 174.805 C 274.210 171.668,288.259 157.360,290.854 139.613 L 291.346 136.250 296.450 136.250 C 300.983 136.250,301.677 136.153,302.652 135.386 L 303.750 134.523 303.750 112.500 L 303.750 90.477 302.758 89.697 L 301.766 88.917 311.085 66.021 C 316.211 53.428,320.407 42.993,320.411 42.832 C 320.417 42.539,316.625 40.726,316.440 40.932 C 316.386 40.993,310.977 51.776,304.420 64.896 C 297.151 79.441,292.270 88.750,291.913 88.750 C 291.521 88.750,291.235 88.028,291.045 86.563 C 288.654 68.112,274.599 53.400,256.300 50.195 C 251.088 49.282,148.912 49.282,143.700 50.195 C 125.790 53.332,111.741 67.640,109.146 85.387 C 108.802 87.739,108.481 88.750,108.077 88.750 C 107.730 88.750,102.712 79.175,95.522 64.792 C 88.935 51.615,83.451 40.849,83.335 40.868 C 83.220 40.888,82.328 41.270,81.354 41.718 M184.407 65.313 C 185.344 70.580,187.115 71.252,200.027 71.241 C 213.013 71.229,214.652 70.602,215.600 65.277 L 215.884 63.679 233.046 63.853 C 247.448 64.000,250.610 64.140,252.708 64.726 C 262.160 67.365,269.838 75.109,272.394 84.583 C 273.505 88.700,273.505 136.300,272.394 140.417 C 269.812 149.987,262.070 157.729,252.500 160.311 C 248.331 161.436,151.669 161.436,147.500 160.311 C 137.930 157.729,130.188 149.987,127.606 140.417 C 126.495 136.300,126.495 88.700,127.606 84.583 C 129.997 75.719,137.256 67.954,145.692 65.234 C 149.334 64.060,152.578 63.858,168.627 63.803 L 184.129 63.750 184.407 65.313 M178.233 95.441 C 173.605 103.730,156.459 107.285,145.174 102.294 L 142.910 101.293 142.269 102.826 C 136.199 117.355,151.969 132.770,169.500 129.444 C 188.095 125.916,194.772 104.388,180.437 94.181 L 179.363 93.417 178.233 95.441 M217.124 96.455 C 201.982 112.464,221.135 135.661,243.628 128.555 C 255.311 124.865,261.905 112.817,257.722 102.805 C 256.953 100.965,256.974 100.968,254.113 102.263 C 243.244 107.184,226.175 103.867,221.250 95.879 C 219.907 93.700,219.702 93.729,217.124 96.455 M191.458 131.621 C 187.757 133.329,186.667 135.707,186.667 142.070 L 186.667 146.667 200.000 146.667 L 213.333 146.667 213.333 142.070 C 213.333 132.624,211.226 130.852,200.000 130.852 C 194.196 130.852,192.865 130.971,191.458 131.621 " stroke="none" fill="#000000" fill-rule="evenodd"></path></g></svg>